<mxfile host="app.diagrams.net" modified="2023-10-04T23:01:00.933Z" agent="Mozilla/5.0 (X11; Linux x86_64) AppleWebKit/537.36 (KHTML, like Gecko) Chrome/108.0.0.0 Safari/537.36" etag="sAThMDr9pILBLc37ttpo" version="22.0.2" type="github" pages="4">
  <diagram id="71OG-30ABKDaulisGDoo" name="Sequencia Aprovação de Ciclo">
    <mxGraphModel dx="2429" dy="775" grid="1" gridSize="10" guides="1" tooltips="1" connect="1" arrows="1" fold="1" page="1" pageScale="1" pageWidth="827" pageHeight="1169" math="0" shadow="0">
      <root>
        <mxCell id="0" />
        <mxCell id="1" parent="0" />
        <mxCell id="WtpHI7r_ZESBK9xusWfh-1" value="" style="rounded=0;whiteSpace=wrap;html=1;" parent="1" vertex="1">
          <mxGeometry x="-90" y="350" width="1160" height="240" as="geometry" />
        </mxCell>
        <mxCell id="WtpHI7r_ZESBK9xusWfh-2" value="" style="rounded=0;whiteSpace=wrap;html=1;" parent="1" vertex="1">
          <mxGeometry x="-90" y="50" width="1160" height="290" as="geometry" />
        </mxCell>
        <mxCell id="WtpHI7r_ZESBK9xusWfh-3" value="&lt;b&gt;Mailing&lt;/b&gt;&lt;br&gt;&lt;table&gt;&lt;tbody&gt;&lt;tr&gt;&lt;td&gt;status&lt;/td&gt;&lt;td&gt;await_approval&lt;/td&gt;&lt;/tr&gt;&lt;tr&gt;&lt;td&gt;WAITING_FOR_APPROVAL&lt;/td&gt;&lt;td&gt;true&lt;/td&gt;&lt;/tr&gt;&lt;/tbody&gt;&lt;/table&gt;" style="rounded=1;whiteSpace=wrap;html=1;fillColor=#f5f5f5;strokeColor=#666666;fontColor=#333333;" parent="1" vertex="1">
          <mxGeometry x="330" y="100" width="270" height="60" as="geometry" />
        </mxCell>
        <mxCell id="WtpHI7r_ZESBK9xusWfh-4" value="&lt;b&gt;ProcessmentSet&lt;br&gt;&lt;/b&gt;&lt;table&gt;&lt;tbody&gt;&lt;tr&gt;&lt;td&gt;status&lt;/td&gt;&lt;/tr&gt;&lt;tr&gt;&lt;td&gt;WAITING_FOR_APPROVAL&lt;/td&gt;&lt;/tr&gt;&lt;/tbody&gt;&lt;/table&gt;" style="rounded=1;whiteSpace=wrap;html=1;fillColor=#f5f5f5;strokeColor=#666666;fontColor=#333333;" parent="1" vertex="1">
          <mxGeometry x="700" y="100" width="170" height="60" as="geometry" />
        </mxCell>
        <mxCell id="WtpHI7r_ZESBK9xusWfh-5" value="&lt;b&gt;Communication&lt;/b&gt;" style="rounded=1;whiteSpace=wrap;html=1;fillColor=#f5f5f5;strokeColor=#666666;fontColor=#333333;" parent="1" vertex="1">
          <mxGeometry x="725" y="220" width="120" height="60" as="geometry" />
        </mxCell>
        <mxCell id="WtpHI7r_ZESBK9xusWfh-6" value="" style="endArrow=classic;html=1;rounded=0;" parent="1" source="WtpHI7r_ZESBK9xusWfh-3" target="WtpHI7r_ZESBK9xusWfh-4" edge="1">
          <mxGeometry relative="1" as="geometry">
            <mxPoint x="330" y="400" as="sourcePoint" />
            <mxPoint x="490" y="400" as="targetPoint" />
          </mxGeometry>
        </mxCell>
        <mxCell id="WtpHI7r_ZESBK9xusWfh-7" value="1" style="edgeLabel;resizable=0;html=1;align=left;verticalAlign=bottom;" parent="WtpHI7r_ZESBK9xusWfh-6" connectable="0" vertex="1">
          <mxGeometry x="-1" relative="1" as="geometry" />
        </mxCell>
        <mxCell id="WtpHI7r_ZESBK9xusWfh-8" value="N" style="edgeLabel;resizable=0;html=1;align=right;verticalAlign=bottom;" parent="WtpHI7r_ZESBK9xusWfh-6" connectable="0" vertex="1">
          <mxGeometry x="1" relative="1" as="geometry">
            <mxPoint x="-10" as="offset" />
          </mxGeometry>
        </mxCell>
        <mxCell id="WtpHI7r_ZESBK9xusWfh-9" value="" style="endArrow=classic;html=1;rounded=0;" parent="1" source="WtpHI7r_ZESBK9xusWfh-4" target="WtpHI7r_ZESBK9xusWfh-5" edge="1">
          <mxGeometry relative="1" as="geometry">
            <mxPoint x="390" y="440" as="sourcePoint" />
            <mxPoint x="570" y="440" as="targetPoint" />
            <Array as="points" />
          </mxGeometry>
        </mxCell>
        <mxCell id="WtpHI7r_ZESBK9xusWfh-10" value="1" style="edgeLabel;resizable=0;html=1;align=left;verticalAlign=bottom;" parent="WtpHI7r_ZESBK9xusWfh-9" connectable="0" vertex="1">
          <mxGeometry x="-1" relative="1" as="geometry">
            <mxPoint y="20" as="offset" />
          </mxGeometry>
        </mxCell>
        <mxCell id="WtpHI7r_ZESBK9xusWfh-11" value="N" style="edgeLabel;resizable=0;html=1;align=right;verticalAlign=bottom;" parent="WtpHI7r_ZESBK9xusWfh-9" connectable="0" vertex="1">
          <mxGeometry x="1" relative="1" as="geometry">
            <mxPoint x="10" y="-10" as="offset" />
          </mxGeometry>
        </mxCell>
        <mxCell id="WtpHI7r_ZESBK9xusWfh-12" value="" style="endArrow=classic;html=1;rounded=0;" parent="1" source="WtpHI7r_ZESBK9xusWfh-15" target="WtpHI7r_ZESBK9xusWfh-3" edge="1">
          <mxGeometry relative="1" as="geometry">
            <mxPoint x="460" y="140" as="sourcePoint" />
            <mxPoint x="570" y="140" as="targetPoint" />
          </mxGeometry>
        </mxCell>
        <mxCell id="WtpHI7r_ZESBK9xusWfh-13" value="1" style="edgeLabel;resizable=0;html=1;align=left;verticalAlign=bottom;" parent="WtpHI7r_ZESBK9xusWfh-12" connectable="0" vertex="1">
          <mxGeometry x="-1" relative="1" as="geometry" />
        </mxCell>
        <mxCell id="WtpHI7r_ZESBK9xusWfh-14" value="N" style="edgeLabel;resizable=0;html=1;align=right;verticalAlign=bottom;" parent="WtpHI7r_ZESBK9xusWfh-12" connectable="0" vertex="1">
          <mxGeometry x="1" relative="1" as="geometry">
            <mxPoint x="-10" as="offset" />
          </mxGeometry>
        </mxCell>
        <mxCell id="WtpHI7r_ZESBK9xusWfh-15" value="&lt;b&gt;Cycle&lt;/b&gt;&lt;table&gt;&lt;tbody&gt;&lt;tr&gt;&lt;td&gt;status&lt;br&gt;&lt;/td&gt;&lt;td&gt;await_approval&lt;/td&gt;&lt;/tr&gt;&lt;tr&gt;&lt;td&gt;WAITING_FOR_APPROVAL&lt;/td&gt;&lt;td&gt;true&lt;/td&gt;&lt;/tr&gt;&lt;/tbody&gt;&lt;/table&gt;" style="rounded=1;whiteSpace=wrap;html=1;align=center;fillColor=#fff2cc;strokeColor=#d6b656;" parent="1" vertex="1">
          <mxGeometry x="-40" y="100" width="280" height="60" as="geometry" />
        </mxCell>
        <mxCell id="WtpHI7r_ZESBK9xusWfh-16" value="" style="edgeStyle=orthogonalEdgeStyle;rounded=0;orthogonalLoop=1;jettySize=auto;html=1;" parent="1" source="WtpHI7r_ZESBK9xusWfh-17" target="WtpHI7r_ZESBK9xusWfh-42" edge="1">
          <mxGeometry relative="1" as="geometry" />
        </mxCell>
        <mxCell id="WtpHI7r_ZESBK9xusWfh-17" value="&lt;b&gt;Mailing&lt;/b&gt;&lt;br&gt;&lt;table&gt;&lt;tbody&gt;&lt;tr&gt;&lt;td&gt;status&lt;/td&gt;&lt;td&gt;await_approval&lt;/td&gt;&lt;/tr&gt;&lt;tr&gt;&lt;td&gt;FINISHED&lt;/td&gt;&lt;td&gt;true&lt;/td&gt;&lt;/tr&gt;&lt;/tbody&gt;&lt;/table&gt;" style="rounded=1;whiteSpace=wrap;html=1;fillColor=#d5e8d4;strokeColor=#82b366;" parent="1" vertex="1">
          <mxGeometry x="310" y="386" width="270" height="60" as="geometry" />
        </mxCell>
        <mxCell id="WtpHI7r_ZESBK9xusWfh-18" value="&lt;b&gt;ProcessmentSet&lt;br&gt;&lt;/b&gt;&lt;table&gt;&lt;tbody&gt;&lt;tr&gt;&lt;td&gt;status&lt;/td&gt;&lt;/tr&gt;&lt;tr&gt;&lt;td&gt;FINISHED&lt;/td&gt;&lt;/tr&gt;&lt;/tbody&gt;&lt;/table&gt;" style="rounded=1;whiteSpace=wrap;html=1;fillColor=#d5e8d4;strokeColor=#82b366;" parent="1" vertex="1">
          <mxGeometry x="700" y="386" width="160" height="60" as="geometry" />
        </mxCell>
        <mxCell id="WtpHI7r_ZESBK9xusWfh-19" value="&lt;b&gt;Communication&lt;/b&gt;" style="rounded=1;whiteSpace=wrap;html=1;fillColor=#d5e8d4;strokeColor=#82b366;" parent="1" vertex="1">
          <mxGeometry x="720" y="503" width="120" height="60" as="geometry" />
        </mxCell>
        <mxCell id="WtpHI7r_ZESBK9xusWfh-20" value="" style="endArrow=classic;html=1;rounded=0;" parent="1" source="WtpHI7r_ZESBK9xusWfh-17" target="WtpHI7r_ZESBK9xusWfh-18" edge="1">
          <mxGeometry relative="1" as="geometry">
            <mxPoint x="310" y="670" as="sourcePoint" />
            <mxPoint x="470" y="670" as="targetPoint" />
          </mxGeometry>
        </mxCell>
        <mxCell id="WtpHI7r_ZESBK9xusWfh-21" value="1" style="edgeLabel;resizable=0;html=1;align=left;verticalAlign=bottom;" parent="WtpHI7r_ZESBK9xusWfh-20" connectable="0" vertex="1">
          <mxGeometry x="-1" relative="1" as="geometry" />
        </mxCell>
        <mxCell id="WtpHI7r_ZESBK9xusWfh-22" value="N" style="edgeLabel;resizable=0;html=1;align=right;verticalAlign=bottom;" parent="WtpHI7r_ZESBK9xusWfh-20" connectable="0" vertex="1">
          <mxGeometry x="1" relative="1" as="geometry">
            <mxPoint x="-10" as="offset" />
          </mxGeometry>
        </mxCell>
        <mxCell id="WtpHI7r_ZESBK9xusWfh-23" value="" style="endArrow=classic;html=1;rounded=0;" parent="1" source="WtpHI7r_ZESBK9xusWfh-18" target="WtpHI7r_ZESBK9xusWfh-19" edge="1">
          <mxGeometry relative="1" as="geometry">
            <mxPoint x="370" y="710" as="sourcePoint" />
            <mxPoint x="550" y="710" as="targetPoint" />
            <Array as="points" />
          </mxGeometry>
        </mxCell>
        <mxCell id="WtpHI7r_ZESBK9xusWfh-24" value="1" style="edgeLabel;resizable=0;html=1;align=left;verticalAlign=bottom;" parent="WtpHI7r_ZESBK9xusWfh-23" connectable="0" vertex="1">
          <mxGeometry x="-1" relative="1" as="geometry">
            <mxPoint y="20" as="offset" />
          </mxGeometry>
        </mxCell>
        <mxCell id="WtpHI7r_ZESBK9xusWfh-25" value="N" style="edgeLabel;resizable=0;html=1;align=right;verticalAlign=bottom;" parent="WtpHI7r_ZESBK9xusWfh-23" connectable="0" vertex="1">
          <mxGeometry x="1" relative="1" as="geometry">
            <mxPoint x="10" y="-10" as="offset" />
          </mxGeometry>
        </mxCell>
        <mxCell id="WtpHI7r_ZESBK9xusWfh-26" value="" style="endArrow=classic;html=1;rounded=0;" parent="1" source="WtpHI7r_ZESBK9xusWfh-29" target="WtpHI7r_ZESBK9xusWfh-17" edge="1">
          <mxGeometry relative="1" as="geometry">
            <mxPoint x="440" y="410" as="sourcePoint" />
            <mxPoint x="550" y="410" as="targetPoint" />
          </mxGeometry>
        </mxCell>
        <mxCell id="WtpHI7r_ZESBK9xusWfh-27" value="1" style="edgeLabel;resizable=0;html=1;align=left;verticalAlign=bottom;" parent="WtpHI7r_ZESBK9xusWfh-26" connectable="0" vertex="1">
          <mxGeometry x="-1" relative="1" as="geometry" />
        </mxCell>
        <mxCell id="WtpHI7r_ZESBK9xusWfh-28" value="N" style="edgeLabel;resizable=0;html=1;align=right;verticalAlign=bottom;" parent="WtpHI7r_ZESBK9xusWfh-26" connectable="0" vertex="1">
          <mxGeometry x="1" relative="1" as="geometry">
            <mxPoint x="-10" as="offset" />
          </mxGeometry>
        </mxCell>
        <mxCell id="WtpHI7r_ZESBK9xusWfh-29" value="&lt;b&gt;Cycle&lt;/b&gt;&lt;table&gt;&lt;tbody&gt;&lt;tr&gt;&lt;td&gt;status&lt;br&gt;&lt;/td&gt;&lt;td&gt;await_approval&lt;/td&gt;&lt;/tr&gt;&lt;tr&gt;&lt;td&gt;APPROVED&lt;/td&gt;&lt;td&gt;true&lt;/td&gt;&lt;/tr&gt;&lt;/tbody&gt;&lt;/table&gt;" style="rounded=1;whiteSpace=wrap;html=1;align=center;fillColor=#fff2cc;strokeColor=#d6b656;" parent="1" vertex="1">
          <mxGeometry y="386" width="220" height="60" as="geometry" />
        </mxCell>
        <mxCell id="WtpHI7r_ZESBK9xusWfh-30" value="" style="edgeStyle=orthogonalEdgeStyle;rounded=0;orthogonalLoop=1;jettySize=auto;html=1;" parent="1" source="WtpHI7r_ZESBK9xusWfh-31" target="WtpHI7r_ZESBK9xusWfh-5" edge="1">
          <mxGeometry relative="1" as="geometry" />
        </mxCell>
        <mxCell id="WtpHI7r_ZESBK9xusWfh-31" value="AGUARDANDO APROVAÇÃO PARA ENVIAR AS COMUNICAÇÕES" style="rounded=0;whiteSpace=wrap;html=1;fillColor=#ffe6cc;strokeColor=#d79b00;" parent="1" vertex="1">
          <mxGeometry x="920" y="220" width="120" height="60" as="geometry" />
        </mxCell>
        <mxCell id="WtpHI7r_ZESBK9xusWfh-32" value="" style="edgeStyle=orthogonalEdgeStyle;rounded=0;orthogonalLoop=1;jettySize=auto;html=1;" parent="1" source="WtpHI7r_ZESBK9xusWfh-33" target="WtpHI7r_ZESBK9xusWfh-19" edge="1">
          <mxGeometry relative="1" as="geometry" />
        </mxCell>
        <mxCell id="WtpHI7r_ZESBK9xusWfh-33" value="COMUNICAÇÕES SENDO ENVIADAS" style="rounded=0;whiteSpace=wrap;html=1;fillColor=#d5e8d4;strokeColor=#82b366;" parent="1" vertex="1">
          <mxGeometry x="930" y="503" width="120" height="60" as="geometry" />
        </mxCell>
        <mxCell id="WtpHI7r_ZESBK9xusWfh-34" value="CICLO APROVADO" style="text;html=1;strokeColor=none;fillColor=none;align=center;verticalAlign=middle;whiteSpace=wrap;rounded=0;fontStyle=1" parent="1" vertex="1">
          <mxGeometry x="-90" y="350" width="140" height="30" as="geometry" />
        </mxCell>
        <mxCell id="WtpHI7r_ZESBK9xusWfh-35" value="CICLO AGUARDANDO APROVAÇÃO" style="text;html=1;strokeColor=none;fillColor=none;align=center;verticalAlign=middle;whiteSpace=wrap;rounded=0;fontStyle=1" parent="1" vertex="1">
          <mxGeometry x="-90" y="50" width="220" height="30" as="geometry" />
        </mxCell>
        <mxCell id="WtpHI7r_ZESBK9xusWfh-36" style="edgeStyle=orthogonalEdgeStyle;rounded=0;orthogonalLoop=1;jettySize=auto;html=1;" parent="1" source="WtpHI7r_ZESBK9xusWfh-37" target="WtpHI7r_ZESBK9xusWfh-15" edge="1">
          <mxGeometry relative="1" as="geometry" />
        </mxCell>
        <mxCell id="WtpHI7r_ZESBK9xusWfh-37" value="&lt;div style=&quot;border-color: var(--border-color); text-align: left;&quot;&gt;{&lt;/div&gt;&lt;div style=&quot;border-color: var(--border-color); text-align: left;&quot;&gt;&amp;nbsp; &quot;mailing&quot;:{&lt;/div&gt;&lt;div style=&quot;border-color: var(--border-color); text-align: left;&quot;&gt;&amp;nbsp; &amp;nbsp; &quot;cycle&quot;:{&lt;/div&gt;&lt;div style=&quot;border-color: var(--border-color); text-align: left;&quot;&gt;&amp;nbsp; &amp;nbsp; &amp;nbsp; &quot;name&quot;:&quot;20230921&quot;,&lt;/div&gt;&lt;div style=&quot;border-color: var(--border-color); text-align: left;&quot;&gt;&amp;nbsp; &amp;nbsp; &amp;nbsp; &quot;brandId&quot;:19,&lt;/div&gt;&lt;div style=&quot;border-color: var(--border-color); text-align: left;&quot;&gt;&amp;nbsp;&amp;nbsp;&amp;nbsp;&amp;nbsp;&amp;nbsp; &lt;b&gt;&quot;awaitApproval&quot;: true&lt;/b&gt;&lt;/div&gt;&lt;div style=&quot;border-color: var(--border-color); text-align: left;&quot;&gt;&amp;nbsp; &amp;nbsp; },&lt;/div&gt;&lt;div style=&quot;border-color: var(--border-color); text-align: left;&quot;&gt;&amp;nbsp; &amp;nbsp; &quot;name&quot;:&quot;Maling_name15092023114411211.txt&quot;&lt;/div&gt;&lt;div style=&quot;border-color: var(--border-color); text-align: left;&quot;&gt;&amp;nbsp; },&lt;/div&gt;&lt;div style=&quot;border-color: var(--border-color); text-align: left;&quot;&gt;&amp;nbsp; &quot;processmentSet&quot;:{&lt;/div&gt;&lt;div style=&quot;border-color: var(--border-color); text-align: left;&quot;&gt;&amp;nbsp; &amp;nbsp; &quot;name&quot;:&quot;ProcessmentSetname15092023114411211_1.txt&quot;&lt;/div&gt;&lt;div style=&quot;border-color: var(--border-color); text-align: left;&quot;&gt;&amp;nbsp; }&lt;/div&gt;&lt;div style=&quot;border-color: var(--border-color); text-align: left;&quot;&gt;}&lt;/div&gt;" style="rounded=0;whiteSpace=wrap;html=1;" parent="1" vertex="1">
          <mxGeometry x="-480" y="30" width="360" height="200" as="geometry" />
        </mxCell>
        <mxCell id="WtpHI7r_ZESBK9xusWfh-38" value="" style="edgeStyle=orthogonalEdgeStyle;rounded=0;orthogonalLoop=1;jettySize=auto;html=1;" parent="1" source="WtpHI7r_ZESBK9xusWfh-39" target="WtpHI7r_ZESBK9xusWfh-41" edge="1">
          <mxGeometry relative="1" as="geometry" />
        </mxCell>
        <mxCell id="WtpHI7r_ZESBK9xusWfh-39" value="Usuário aprovador" style="shape=umlActor;verticalLabelPosition=bottom;verticalAlign=top;html=1;outlineConnect=0;" parent="1" vertex="1">
          <mxGeometry x="-443" y="386" width="30" height="60" as="geometry" />
        </mxCell>
        <mxCell id="WtpHI7r_ZESBK9xusWfh-40" style="edgeStyle=orthogonalEdgeStyle;rounded=0;orthogonalLoop=1;jettySize=auto;html=1;" parent="1" source="WtpHI7r_ZESBK9xusWfh-41" target="WtpHI7r_ZESBK9xusWfh-29" edge="1">
          <mxGeometry relative="1" as="geometry" />
        </mxCell>
        <mxCell id="WtpHI7r_ZESBK9xusWfh-41" value="Data-API" style="ellipse;whiteSpace=wrap;html=1;" parent="1" vertex="1">
          <mxGeometry x="-320" y="376" width="120" height="80" as="geometry" />
        </mxCell>
        <mxCell id="WtpHI7r_ZESBK9xusWfh-42" value="SE ENTRAR UMA NOVA MAILING DEPOIS DO CICLO APROVADO, A MAILING ENTRA DIRETO COM O STATUS &quot;FINISHED&quot;" style="rounded=0;whiteSpace=wrap;html=1;fillColor=#ffe6cc;strokeColor=#d79b00;fontStyle=1" parent="1" vertex="1">
          <mxGeometry x="340" y="483" width="210" height="80" as="geometry" />
        </mxCell>
        <mxCell id="WtpHI7r_ZESBK9xusWfh-43" value="Text" style="text;html=1;strokeColor=none;fillColor=none;align=center;verticalAlign=middle;whiteSpace=wrap;rounded=0;" parent="1" vertex="1">
          <mxGeometry x="230" y="380" width="60" height="30" as="geometry" />
        </mxCell>
        <mxCell id="WtpHI7r_ZESBK9xusWfh-44" value="&lt;ol&gt;&lt;li&gt;criar novo campo &quot;await_approval&quot; para Cycle - (banco, data-api, integration-api)&lt;/li&gt;&lt;li&gt;quando criar a mailing, já olhar o &quot;await_approval&quot; do cycle, e&amp;nbsp; atualiza o &quot;await_approval&quot; da mailing conforme o campo &quot;await_approval&quot; do cycle&lt;/li&gt;&lt;li&gt;quando finalizar a mailing, verificar o campo &quot;await_approval&quot; também do ciclo&lt;/li&gt;&lt;li&gt;criar endpoint para aprovar o ciclo&lt;/li&gt;&lt;/ol&gt;" style="text;html=1;strokeColor=none;fillColor=none;align=left;verticalAlign=middle;whiteSpace=wrap;rounded=0;" parent="1" vertex="1">
          <mxGeometry x="-70" y="600" width="440" height="150" as="geometry" />
        </mxCell>
        <mxCell id="WtpHI7r_ZESBK9xusWfh-45" value="&lt;b style=&quot;border-color: var(--border-color);&quot;&gt;DÚVIDAS&lt;br style=&quot;border-color: var(--border-color);&quot;&gt;&lt;/b&gt;&lt;br style=&quot;border-color: var(--border-color);&quot;&gt;P. Aprovar o ciclo inteiro, permitir a volta de status?&lt;br style=&quot;border-color: var(--border-color);&quot;&gt;&lt;span style=&quot;&quot;&gt;R. Uma vez aprovado, o ciclo não volta mais pra status &quot;Aguardando Validação&quot;&lt;/span&gt;&lt;br style=&quot;border-color: var(--border-color);&quot;&gt;&lt;br style=&quot;border-color: var(--border-color);&quot;&gt;&lt;span style=&quot;&quot;&gt;P. O que acontece quando aprovar só alguns&lt;/span&gt;&lt;br style=&quot;border-color: var(--border-color);&quot;&gt;&lt;span style=&quot;&quot;&gt;templates?&lt;/span&gt;&lt;br style=&quot;border-color: var(--border-color);&quot;&gt;&lt;span style=&quot;&quot;&gt;R. Não manda nada&lt;/span&gt;&lt;br style=&quot;border-color: var(--border-color);&quot;&gt;&lt;br style=&quot;border-color: var(--border-color);&quot;&gt;&lt;span style=&quot;&quot;&gt;P. O usuário não vai ter como consultar as &quot;amostras&quot; ?&lt;/span&gt;&lt;br style=&quot;border-color: var(--border-color);&quot;&gt;&lt;span style=&quot;&quot;&gt;R. No DC não&lt;/span&gt;" style="rounded=0;whiteSpace=wrap;html=1;align=left;" parent="1" vertex="1">
          <mxGeometry x="-530" y="530" width="430" height="200" as="geometry" />
        </mxCell>
      </root>
    </mxGraphModel>
  </diagram>
  <diagram id="0hzNqZ-0HKCYOSR2Ivjf" name="Cenário Ciclo Aguardando Aprovação">
    <mxGraphModel dx="2429" dy="775" grid="1" gridSize="10" guides="1" tooltips="1" connect="1" arrows="1" fold="1" page="1" pageScale="1" pageWidth="827" pageHeight="1169" math="0" shadow="0">
      <root>
        <mxCell id="0" />
        <mxCell id="1" parent="0" />
        <mxCell id="8OfKFvVVNwhgVETorVO7-4" value="" style="rounded=0;whiteSpace=wrap;html=1;fillColor=#b1ddf0;strokeColor=#10739e;" parent="1" vertex="1">
          <mxGeometry x="-310" y="870" width="1410" height="290" as="geometry" />
        </mxCell>
        <mxCell id="8OfKFvVVNwhgVETorVO7-3" value="" style="rounded=0;whiteSpace=wrap;html=1;fillColor=#b0e3e6;strokeColor=#0e8088;" parent="1" vertex="1">
          <mxGeometry x="-310" y="610" width="1410" height="260" as="geometry" />
        </mxCell>
        <mxCell id="8OfKFvVVNwhgVETorVO7-2" value="" style="rounded=0;whiteSpace=wrap;html=1;fillColor=#f5f5f5;strokeColor=#666666;fontColor=#333333;" parent="1" vertex="1">
          <mxGeometry x="-310" y="20" width="1410" height="230" as="geometry" />
        </mxCell>
        <mxCell id="8OfKFvVVNwhgVETorVO7-1" value="" style="rounded=0;whiteSpace=wrap;html=1;fillColor=#dae8fc;strokeColor=#6c8ebf;" parent="1" vertex="1">
          <mxGeometry x="-310" y="250" width="1410" height="360" as="geometry" />
        </mxCell>
        <mxCell id="Rn0e0Sy45onSh28boRq6-18" style="edgeStyle=orthogonalEdgeStyle;rounded=0;orthogonalLoop=1;jettySize=auto;html=1;" parent="1" source="k4zt-d1F4ld27Xl1LYR--1" target="Rn0e0Sy45onSh28boRq6-15" edge="1">
          <mxGeometry relative="1" as="geometry">
            <Array as="points">
              <mxPoint x="330" y="90" />
              <mxPoint x="330" y="90" />
            </Array>
          </mxGeometry>
        </mxCell>
        <mxCell id="k4zt-d1F4ld27Xl1LYR--1" value="&lt;div style=&quot;border-color: var(--border-color); text-align: left;&quot;&gt;{&lt;/div&gt;&lt;div style=&quot;border-color: var(--border-color); text-align: left;&quot;&gt;&amp;nbsp; &quot;mailing&quot;:{&lt;/div&gt;&lt;div style=&quot;border-color: var(--border-color); text-align: left;&quot;&gt;&amp;nbsp; &amp;nbsp; &quot;cycle&quot;:{&lt;/div&gt;&lt;div style=&quot;border-color: var(--border-color); text-align: left;&quot;&gt;&amp;nbsp; &amp;nbsp; &amp;nbsp; &quot;name&quot;:&quot;20230921&quot;,&lt;/div&gt;&lt;div style=&quot;border-color: var(--border-color); text-align: left;&quot;&gt;&amp;nbsp; &amp;nbsp; &amp;nbsp; &quot;brandId&quot;:19&lt;/div&gt;&lt;div style=&quot;border-color: var(--border-color); text-align: left;&quot;&gt;&amp;nbsp; &amp;nbsp; },&lt;/div&gt;&lt;div style=&quot;border-color: var(--border-color); text-align: left;&quot;&gt;&amp;nbsp; &amp;nbsp; &quot;name&quot;:&quot;Maling_name15092023114411211.txt&quot;&lt;/div&gt;&lt;div style=&quot;border-color: var(--border-color); text-align: left;&quot;&gt;&amp;nbsp; }&lt;/div&gt;&lt;div style=&quot;border-color: var(--border-color); text-align: left;&quot;&gt;}&lt;/div&gt;" style="rounded=0;whiteSpace=wrap;html=1;" parent="1" vertex="1">
          <mxGeometry x="-80" y="40" width="310" height="200" as="geometry" />
        </mxCell>
        <mxCell id="t-vkJnTV5jXpFCpWrTl7-1" value="&lt;b&gt;Mailing&lt;/b&gt;&lt;br&gt;&lt;table&gt;&lt;tbody&gt;&lt;tr&gt;&lt;td&gt;status&lt;/td&gt;&lt;td&gt;await_approval&lt;/td&gt;&lt;/tr&gt;&lt;tr&gt;&lt;td&gt;CREATED&lt;/td&gt;&lt;td&gt;NULL&lt;/td&gt;&lt;/tr&gt;&lt;/tbody&gt;&lt;/table&gt;" style="rounded=1;whiteSpace=wrap;html=1;fillColor=#d5e8d4;strokeColor=#82b366;" parent="1" vertex="1">
          <mxGeometry x="720" y="160" width="206" height="60" as="geometry" />
        </mxCell>
        <mxCell id="t-vkJnTV5jXpFCpWrTl7-4" value="" style="edgeStyle=orthogonalEdgeStyle;rounded=0;orthogonalLoop=1;jettySize=auto;html=1;" parent="1" source="t-vkJnTV5jXpFCpWrTl7-2" target="k4zt-d1F4ld27Xl1LYR--1" edge="1">
          <mxGeometry relative="1" as="geometry" />
        </mxCell>
        <mxCell id="t-vkJnTV5jXpFCpWrTl7-2" value="Recepção&lt;br&gt;SCP" style="ellipse;whiteSpace=wrap;html=1;" parent="1" vertex="1">
          <mxGeometry x="-280" y="100" width="120" height="80" as="geometry" />
        </mxCell>
        <mxCell id="t-vkJnTV5jXpFCpWrTl7-3" value="Inicio de Processamento&lt;br&gt;SCP" style="ellipse;whiteSpace=wrap;html=1;" parent="1" vertex="1">
          <mxGeometry x="-290" y="390" width="120" height="80" as="geometry" />
        </mxCell>
        <mxCell id="H7PqtL7XG2RYzvDJvNn9-1" value="&lt;b&gt;Cycle&lt;/b&gt;&lt;table&gt;&lt;tbody&gt;&lt;tr&gt;&lt;td&gt;status&lt;br&gt;&lt;/td&gt;&lt;td&gt;await_approval&lt;/td&gt;&lt;/tr&gt;&lt;tr&gt;&lt;td&gt;ACTIVE&lt;/td&gt;&lt;td&gt;NULL&lt;/td&gt;&lt;/tr&gt;&lt;/tbody&gt;&lt;/table&gt;" style="rounded=1;whiteSpace=wrap;html=1;align=center;fillColor=#fff2cc;strokeColor=#d6b656;" parent="1" vertex="1">
          <mxGeometry x="520" y="160" width="170" height="60" as="geometry" />
        </mxCell>
        <mxCell id="Rn0e0Sy45onSh28boRq6-2" value="&lt;b&gt;Mailing&lt;/b&gt;&lt;br&gt;&lt;table&gt;&lt;tbody&gt;&lt;tr&gt;&lt;td&gt;status&lt;/td&gt;&lt;td&gt;await_approval&lt;/td&gt;&lt;/tr&gt;&lt;tr&gt;&lt;td&gt;PROCESSING&lt;/td&gt;&lt;td&gt;true&lt;/td&gt;&lt;/tr&gt;&lt;/tbody&gt;&lt;/table&gt;" style="rounded=1;whiteSpace=wrap;html=1;fillColor=#d5e8d4;strokeColor=#82b366;" parent="1" vertex="1">
          <mxGeometry x="780" y="480" width="206" height="60" as="geometry" />
        </mxCell>
        <mxCell id="Rn0e0Sy45onSh28boRq6-3" value="&lt;b&gt;Cycle&lt;/b&gt;&lt;table&gt;&lt;tbody&gt;&lt;tr&gt;&lt;td&gt;status&lt;br&gt;&lt;/td&gt;&lt;td&gt;await_approval&lt;/td&gt;&lt;/tr&gt;&lt;tr&gt;&lt;td&gt;ACTIVE&lt;/td&gt;&lt;td&gt;true&lt;/td&gt;&lt;/tr&gt;&lt;/tbody&gt;&lt;/table&gt;" style="rounded=1;whiteSpace=wrap;html=1;align=center;fillColor=#fff2cc;strokeColor=#d6b656;" parent="1" vertex="1">
          <mxGeometry x="480" y="480" width="265" height="60" as="geometry" />
        </mxCell>
        <mxCell id="Rn0e0Sy45onSh28boRq6-8" value="" style="edgeStyle=orthogonalEdgeStyle;rounded=0;orthogonalLoop=1;jettySize=auto;html=1;" parent="1" source="Rn0e0Sy45onSh28boRq6-5" target="Rn0e0Sy45onSh28boRq6-6" edge="1">
          <mxGeometry relative="1" as="geometry" />
        </mxCell>
        <mxCell id="Rn0e0Sy45onSh28boRq6-5" value="Integration API" style="sketch=0;outlineConnect=0;fontColor=#232F3E;gradientColor=none;fillColor=#232F3D;strokeColor=none;dashed=0;verticalLabelPosition=bottom;verticalAlign=top;align=center;html=1;fontSize=12;fontStyle=0;aspect=fixed;pointerEvents=1;shape=mxgraph.aws4.gear;" parent="1" vertex="1">
          <mxGeometry x="520" y="295" width="30" height="30" as="geometry" />
        </mxCell>
        <mxCell id="Rn0e0Sy45onSh28boRq6-12" value="" style="edgeStyle=orthogonalEdgeStyle;rounded=0;orthogonalLoop=1;jettySize=auto;html=1;" parent="1" source="Rn0e0Sy45onSh28boRq6-6" target="Rn0e0Sy45onSh28boRq6-10" edge="1">
          <mxGeometry relative="1" as="geometry" />
        </mxCell>
        <mxCell id="Rn0e0Sy45onSh28boRq6-6" value="Data API" style="sketch=0;outlineConnect=0;fontColor=#232F3E;gradientColor=none;fillColor=#232F3D;strokeColor=none;dashed=0;verticalLabelPosition=bottom;verticalAlign=top;align=center;html=1;fontSize=12;fontStyle=0;aspect=fixed;pointerEvents=1;shape=mxgraph.aws4.gear;" parent="1" vertex="1">
          <mxGeometry x="609" y="295" width="30" height="30" as="geometry" />
        </mxCell>
        <mxCell id="Rn0e0Sy45onSh28boRq6-9" value="" style="edgeStyle=orthogonalEdgeStyle;rounded=0;orthogonalLoop=1;jettySize=auto;html=1;" parent="1" source="t-vkJnTV5jXpFCpWrTl7-3" target="H7PqtL7XG2RYzvDJvNn9-2" edge="1">
          <mxGeometry relative="1" as="geometry">
            <mxPoint x="-140" y="360" as="sourcePoint" />
            <mxPoint x="40" y="570" as="targetPoint" />
          </mxGeometry>
        </mxCell>
        <mxCell id="Rn0e0Sy45onSh28boRq6-11" style="edgeStyle=orthogonalEdgeStyle;rounded=0;orthogonalLoop=1;jettySize=auto;html=1;" parent="1" source="H7PqtL7XG2RYzvDJvNn9-2" target="Rn0e0Sy45onSh28boRq6-5" edge="1">
          <mxGeometry relative="1" as="geometry" />
        </mxCell>
        <mxCell id="H7PqtL7XG2RYzvDJvNn9-2" value="&lt;div style=&quot;border-color: var(--border-color); text-align: left;&quot;&gt;{&lt;/div&gt;&lt;div style=&quot;border-color: var(--border-color); text-align: left;&quot;&gt;&amp;nbsp; &quot;mailing&quot;:{&lt;/div&gt;&lt;div style=&quot;border-color: var(--border-color); text-align: left;&quot;&gt;&amp;nbsp; &amp;nbsp; &quot;cycle&quot;:{&lt;/div&gt;&lt;div style=&quot;border-color: var(--border-color); text-align: left;&quot;&gt;&amp;nbsp; &amp;nbsp; &amp;nbsp; &quot;name&quot;:&quot;20230921&quot;,&lt;/div&gt;&lt;div style=&quot;border-color: var(--border-color); text-align: left;&quot;&gt;&amp;nbsp; &amp;nbsp; &amp;nbsp; &quot;brandId&quot;:19,&lt;/div&gt;&lt;div style=&quot;border-color: var(--border-color); text-align: left;&quot;&gt;&lt;div style=&quot;border-color: var(--border-color);&quot;&gt;&amp;nbsp; &amp;nbsp; &amp;nbsp; &quot;applicationId&quot;: 4539,&lt;/div&gt;&lt;div style=&quot;border-color: var(--border-color);&quot;&gt;&amp;nbsp; &amp;nbsp; &amp;nbsp; &quot;applicationName&quot;: &quot;Fatura 1a Via&quot;,&lt;/div&gt;&lt;div style=&quot;border-color: var(--border-color);&quot;&gt;&amp;nbsp; &amp;nbsp; &amp;nbsp;&amp;nbsp;&lt;b style=&quot;border-color: var(--border-color);&quot;&gt;&quot;awaitApproval&quot;: true&lt;/b&gt;&lt;br&gt;&lt;/div&gt;&lt;/div&gt;&lt;div style=&quot;border-color: var(--border-color); text-align: left;&quot;&gt;&amp;nbsp; &amp;nbsp; },&lt;/div&gt;&lt;div style=&quot;border-color: var(--border-color); text-align: left;&quot;&gt;&amp;nbsp; &amp;nbsp; &quot;name&quot;:&quot;Maling_name15092023114411211.txt&quot;,&lt;/div&gt;&lt;div style=&quot;border-color: var(--border-color); text-align: left;&quot;&gt;&lt;div style=&quot;border-color: var(--border-color);&quot;&gt;&amp;nbsp; &amp;nbsp; &quot;referenceId&quot;: 44894599,&lt;/div&gt;&lt;div style=&quot;border-color: var(--border-color);&quot;&gt;&amp;nbsp; &amp;nbsp; &quot;processmentId&quot;: 1408784,&lt;/div&gt;&lt;div style=&quot;border-color: var(--border-color);&quot;&gt;&amp;nbsp; &amp;nbsp; &quot;inputQuantity&quot;: 502455,&lt;/div&gt;&lt;div style=&quot;border-color: var(--border-color);&quot;&gt;&amp;nbsp; &amp;nbsp; &quot;description&quot;: &quot;Faturas - 1a Via - E-mail&quot;,&lt;/div&gt;&lt;div style=&quot;border-color: var(--border-color);&quot;&gt;&lt;div style=&quot;border-color: var(--border-color);&quot;&gt;&amp;nbsp; &amp;nbsp; &quot;processmentSet&quot;: [&lt;/div&gt;&lt;div style=&quot;border-color: var(--border-color);&quot;&gt;&amp;nbsp; &amp;nbsp; &amp;nbsp; {&lt;/div&gt;&lt;div style=&quot;border-color: var(--border-color);&quot;&gt;&amp;nbsp; &amp;nbsp; &amp;nbsp; &amp;nbsp; &quot;name&quot;: &quot;Maling_name15092023114411211_PACOTE001.zip&quot;&lt;/div&gt;&lt;div style=&quot;border-color: var(--border-color);&quot;&gt;&amp;nbsp; &amp;nbsp; &amp;nbsp; },&lt;/div&gt;&lt;div style=&quot;border-color: var(--border-color);&quot;&gt;&amp;nbsp; &amp;nbsp; &amp;nbsp; {&lt;/div&gt;&lt;div style=&quot;border-color: var(--border-color);&quot;&gt;&amp;nbsp; &amp;nbsp; &amp;nbsp; &amp;nbsp; &quot;name&quot;: &quot;Maling_name15092023114411211_PACOTE002.zip&quot;&lt;br&gt;&lt;/div&gt;&lt;div style=&quot;border-color: var(--border-color);&quot;&gt;&amp;nbsp; &amp;nbsp; &amp;nbsp; }&lt;/div&gt;&lt;div style=&quot;border-color: var(--border-color);&quot;&gt;&amp;nbsp; &amp;nbsp;]&lt;/div&gt;&lt;/div&gt;&lt;/div&gt;&lt;div style=&quot;border-color: var(--border-color); text-align: left;&quot;&gt;&amp;nbsp; }&lt;/div&gt;&lt;div style=&quot;border-color: var(--border-color); text-align: left;&quot;&gt;}&lt;/div&gt;" style="rounded=0;whiteSpace=wrap;html=1;" parent="1" vertex="1">
          <mxGeometry x="-80" y="255" width="450" height="350" as="geometry" />
        </mxCell>
        <mxCell id="Rn0e0Sy45onSh28boRq6-13" value="" style="edgeStyle=orthogonalEdgeStyle;rounded=0;orthogonalLoop=1;jettySize=auto;html=1;" parent="1" source="Rn0e0Sy45onSh28boRq6-10" target="Rn0e0Sy45onSh28boRq6-3" edge="1">
          <mxGeometry relative="1" as="geometry" />
        </mxCell>
        <mxCell id="Rn0e0Sy45onSh28boRq6-14" style="edgeStyle=orthogonalEdgeStyle;rounded=0;orthogonalLoop=1;jettySize=auto;html=1;exitX=0.5;exitY=1;exitDx=0;exitDy=0;exitPerimeter=0;" parent="1" source="Rn0e0Sy45onSh28boRq6-10" target="Rn0e0Sy45onSh28boRq6-2" edge="1">
          <mxGeometry relative="1" as="geometry" />
        </mxCell>
        <mxCell id="Rn0e0Sy45onSh28boRq6-10" value="NMC" style="shape=cylinder3;whiteSpace=wrap;html=1;boundedLbl=1;backgroundOutline=1;size=15;" parent="1" vertex="1">
          <mxGeometry x="680" y="280" width="40" height="60" as="geometry" />
        </mxCell>
        <mxCell id="Rn0e0Sy45onSh28boRq6-17" value="" style="edgeStyle=orthogonalEdgeStyle;rounded=0;orthogonalLoop=1;jettySize=auto;html=1;" parent="1" source="Rn0e0Sy45onSh28boRq6-15" target="Rn0e0Sy45onSh28boRq6-16" edge="1">
          <mxGeometry relative="1" as="geometry" />
        </mxCell>
        <mxCell id="Rn0e0Sy45onSh28boRq6-15" value="Data API" style="sketch=0;outlineConnect=0;fontColor=#232F3E;gradientColor=none;fillColor=#232F3D;strokeColor=none;dashed=0;verticalLabelPosition=bottom;verticalAlign=top;align=center;html=1;fontSize=12;fontStyle=0;aspect=fixed;pointerEvents=1;shape=mxgraph.aws4.gear;" parent="1" vertex="1">
          <mxGeometry x="580" y="75" width="30" height="30" as="geometry" />
        </mxCell>
        <mxCell id="Rn0e0Sy45onSh28boRq6-19" style="edgeStyle=orthogonalEdgeStyle;rounded=0;orthogonalLoop=1;jettySize=auto;html=1;exitX=0.5;exitY=1;exitDx=0;exitDy=0;exitPerimeter=0;" parent="1" source="Rn0e0Sy45onSh28boRq6-16" target="t-vkJnTV5jXpFCpWrTl7-1" edge="1">
          <mxGeometry relative="1" as="geometry" />
        </mxCell>
        <mxCell id="Rn0e0Sy45onSh28boRq6-20" value="" style="edgeStyle=orthogonalEdgeStyle;rounded=0;orthogonalLoop=1;jettySize=auto;html=1;" parent="1" source="Rn0e0Sy45onSh28boRq6-16" target="H7PqtL7XG2RYzvDJvNn9-1" edge="1">
          <mxGeometry relative="1" as="geometry" />
        </mxCell>
        <mxCell id="Rn0e0Sy45onSh28boRq6-16" value="NMC" style="shape=cylinder3;whiteSpace=wrap;html=1;boundedLbl=1;backgroundOutline=1;size=15;" parent="1" vertex="1">
          <mxGeometry x="680" y="60" width="40" height="60" as="geometry" />
        </mxCell>
        <mxCell id="Rn0e0Sy45onSh28boRq6-21" value="Fim de pacote&amp;nbsp;&lt;br&gt;SCP" style="ellipse;whiteSpace=wrap;html=1;" parent="1" vertex="1">
          <mxGeometry x="-290" y="918" width="120" height="80" as="geometry" />
        </mxCell>
        <mxCell id="Rn0e0Sy45onSh28boRq6-22" value="&lt;b&gt;Mailing&lt;/b&gt;&lt;br&gt;&lt;table&gt;&lt;tbody&gt;&lt;tr&gt;&lt;td&gt;status&lt;/td&gt;&lt;td&gt;await_approval&lt;/td&gt;&lt;/tr&gt;&lt;tr&gt;&lt;td&gt;WAITING_FOR_APPROVAL&lt;/td&gt;&lt;td&gt;true&lt;/td&gt;&lt;/tr&gt;&lt;/tbody&gt;&lt;/table&gt;" style="rounded=1;whiteSpace=wrap;html=1;fillColor=#d5e8d4;strokeColor=#82b366;" parent="1" vertex="1">
          <mxGeometry x="790" y="1088" width="260" height="60" as="geometry" />
        </mxCell>
        <mxCell id="Rn0e0Sy45onSh28boRq6-23" value="&lt;b&gt;Cycle&lt;/b&gt;&lt;table&gt;&lt;tbody&gt;&lt;tr&gt;&lt;td&gt;status&lt;br&gt;&lt;/td&gt;&lt;td&gt;await_approval&lt;/td&gt;&lt;/tr&gt;&lt;tr&gt;&lt;td&gt;WAITING_FOR_APPROVAL&lt;/td&gt;&lt;td&gt;true&lt;/td&gt;&lt;/tr&gt;&lt;/tbody&gt;&lt;/table&gt;" style="rounded=1;whiteSpace=wrap;html=1;align=center;fillColor=#fff2cc;strokeColor=#d6b656;" parent="1" vertex="1">
          <mxGeometry x="490" y="1088" width="265" height="60" as="geometry" />
        </mxCell>
        <mxCell id="Rn0e0Sy45onSh28boRq6-24" value="" style="edgeStyle=orthogonalEdgeStyle;rounded=0;orthogonalLoop=1;jettySize=auto;html=1;" parent="1" source="Rn0e0Sy45onSh28boRq6-25" target="Rn0e0Sy45onSh28boRq6-27" edge="1">
          <mxGeometry relative="1" as="geometry" />
        </mxCell>
        <mxCell id="Rn0e0Sy45onSh28boRq6-25" value="Integration API" style="sketch=0;outlineConnect=0;fontColor=#232F3E;gradientColor=none;fillColor=#232F3D;strokeColor=none;dashed=0;verticalLabelPosition=bottom;verticalAlign=top;align=center;html=1;fontSize=12;fontStyle=0;aspect=fixed;pointerEvents=1;shape=mxgraph.aws4.gear;fillStyle=solid;" parent="1" vertex="1">
          <mxGeometry x="530" y="943" width="30" height="30" as="geometry" />
        </mxCell>
        <mxCell id="Rn0e0Sy45onSh28boRq6-26" value="" style="edgeStyle=orthogonalEdgeStyle;rounded=0;orthogonalLoop=1;jettySize=auto;html=1;" parent="1" source="Rn0e0Sy45onSh28boRq6-27" target="Rn0e0Sy45onSh28boRq6-33" edge="1">
          <mxGeometry relative="1" as="geometry" />
        </mxCell>
        <mxCell id="Rn0e0Sy45onSh28boRq6-27" value="Data API" style="sketch=0;outlineConnect=0;fontColor=#232F3E;gradientColor=none;fillColor=#232F3D;strokeColor=none;dashed=0;verticalLabelPosition=bottom;verticalAlign=top;align=center;html=1;fontSize=12;fontStyle=0;aspect=fixed;pointerEvents=1;shape=mxgraph.aws4.gear;fillStyle=solid;" parent="1" vertex="1">
          <mxGeometry x="619" y="943" width="30" height="30" as="geometry" />
        </mxCell>
        <mxCell id="Rn0e0Sy45onSh28boRq6-28" value="" style="edgeStyle=orthogonalEdgeStyle;rounded=0;orthogonalLoop=1;jettySize=auto;html=1;" parent="1" source="Rn0e0Sy45onSh28boRq6-21" target="Rn0e0Sy45onSh28boRq6-30" edge="1">
          <mxGeometry relative="1" as="geometry">
            <mxPoint x="-130" y="968" as="sourcePoint" />
            <mxPoint x="50" y="1178" as="targetPoint" />
          </mxGeometry>
        </mxCell>
        <mxCell id="Rn0e0Sy45onSh28boRq6-29" style="edgeStyle=orthogonalEdgeStyle;rounded=0;orthogonalLoop=1;jettySize=auto;html=1;" parent="1" source="Rn0e0Sy45onSh28boRq6-30" target="Rn0e0Sy45onSh28boRq6-25" edge="1">
          <mxGeometry relative="1" as="geometry" />
        </mxCell>
        <mxCell id="Rn0e0Sy45onSh28boRq6-30" value="&lt;div style=&quot;border-color: var(--border-color); text-align: left;&quot;&gt;{&lt;/div&gt;&lt;div style=&quot;border-color: var(--border-color); text-align: left;&quot;&gt;&amp;nbsp; &quot;mailing&quot;:{&lt;/div&gt;&lt;div style=&quot;border-color: var(--border-color); text-align: left;&quot;&gt;&amp;nbsp; &amp;nbsp; &quot;cycle&quot;:{&lt;/div&gt;&lt;div style=&quot;border-color: var(--border-color); text-align: left;&quot;&gt;&amp;nbsp; &amp;nbsp; &amp;nbsp; &quot;name&quot;:&quot;20230921&quot;,&lt;/div&gt;&lt;div style=&quot;border-color: var(--border-color); text-align: left;&quot;&gt;&amp;nbsp; &amp;nbsp; &amp;nbsp; &quot;brandId&quot;:19,&lt;/div&gt;&lt;div style=&quot;border-color: var(--border-color); text-align: left;&quot;&gt;&lt;div style=&quot;border-color: var(--border-color);&quot;&gt;&amp;nbsp; &amp;nbsp; &amp;nbsp; &quot;applicationId&quot;: 4539&lt;/div&gt;&lt;/div&gt;&lt;div style=&quot;border-color: var(--border-color); text-align: left;&quot;&gt;&amp;nbsp; &amp;nbsp; },&lt;/div&gt;&lt;div style=&quot;border-color: var(--border-color); text-align: left;&quot;&gt;&amp;nbsp; &amp;nbsp; &quot;name&quot;: &quot;Maling_name15092023114411211_PACOTE002.zip&quot;&lt;/div&gt;&lt;div style=&quot;border-color: var(--border-color); text-align: left;&quot;&gt;}&lt;/div&gt;" style="rounded=0;whiteSpace=wrap;html=1;" parent="1" vertex="1">
          <mxGeometry x="-70" y="883" width="450" height="150" as="geometry" />
        </mxCell>
        <mxCell id="Rn0e0Sy45onSh28boRq6-31" value="" style="edgeStyle=orthogonalEdgeStyle;rounded=0;orthogonalLoop=1;jettySize=auto;html=1;" parent="1" source="Rn0e0Sy45onSh28boRq6-33" target="Rn0e0Sy45onSh28boRq6-23" edge="1">
          <mxGeometry relative="1" as="geometry" />
        </mxCell>
        <mxCell id="Rn0e0Sy45onSh28boRq6-32" style="edgeStyle=orthogonalEdgeStyle;rounded=0;orthogonalLoop=1;jettySize=auto;html=1;exitX=0.5;exitY=1;exitDx=0;exitDy=0;exitPerimeter=0;" parent="1" source="Rn0e0Sy45onSh28boRq6-33" target="Rn0e0Sy45onSh28boRq6-22" edge="1">
          <mxGeometry relative="1" as="geometry" />
        </mxCell>
        <mxCell id="Rn0e0Sy45onSh28boRq6-33" value="NMC" style="shape=cylinder3;whiteSpace=wrap;html=1;boundedLbl=1;backgroundOutline=1;size=15;" parent="1" vertex="1">
          <mxGeometry x="690" y="928" width="40" height="60" as="geometry" />
        </mxCell>
        <mxCell id="NyPUFajkC76MvVQ8xZuw-3" value="" style="edgeStyle=orthogonalEdgeStyle;rounded=0;orthogonalLoop=1;jettySize=auto;html=1;" parent="1" source="NyPUFajkC76MvVQ8xZuw-1" target="NyPUFajkC76MvVQ8xZuw-2" edge="1">
          <mxGeometry relative="1" as="geometry" />
        </mxCell>
        <mxCell id="NyPUFajkC76MvVQ8xZuw-6" style="edgeStyle=orthogonalEdgeStyle;rounded=0;orthogonalLoop=1;jettySize=auto;html=1;" parent="1" source="NyPUFajkC76MvVQ8xZuw-1" target="NyPUFajkC76MvVQ8xZuw-4" edge="1">
          <mxGeometry relative="1" as="geometry">
            <Array as="points">
              <mxPoint x="-160" y="745" />
              <mxPoint x="-160" y="797" />
            </Array>
          </mxGeometry>
        </mxCell>
        <mxCell id="NyPUFajkC76MvVQ8xZuw-1" value="Amostras do ciclo" style="ellipse;whiteSpace=wrap;html=1;" parent="1" vertex="1">
          <mxGeometry x="-290" y="705" width="120" height="80" as="geometry" />
        </mxCell>
        <mxCell id="NyPUFajkC76MvVQ8xZuw-18" style="edgeStyle=orthogonalEdgeStyle;rounded=0;orthogonalLoop=1;jettySize=auto;html=1;" parent="1" source="NyPUFajkC76MvVQ8xZuw-2" target="NyPUFajkC76MvVQ8xZuw-8" edge="1">
          <mxGeometry relative="1" as="geometry" />
        </mxCell>
        <mxCell id="NyPUFajkC76MvVQ8xZuw-2" value="&lt;div style=&quot;border-color: var(--border-color); text-align: left;&quot;&gt;&lt;div style=&quot;border-color: var(--border-color);&quot;&gt;{&lt;/div&gt;&lt;div style=&quot;border-color: var(--border-color);&quot;&gt;&amp;nbsp; &amp;nbsp;&quot;cycle&quot;:{&lt;/div&gt;&lt;div style=&quot;border-color: var(--border-color);&quot;&gt;&amp;nbsp; &amp;nbsp; &amp;nbsp; &quot;name&quot;:&quot;20230921&quot;,&lt;/div&gt;&lt;div style=&quot;border-color: var(--border-color);&quot;&gt;&amp;nbsp; &amp;nbsp; &amp;nbsp; &quot;brandId&quot;:19&lt;/div&gt;&lt;div style=&quot;border-color: var(--border-color);&quot;&gt;&amp;nbsp; &amp;nbsp;},&lt;/div&gt;&lt;div style=&quot;border-color: var(--border-color);&quot;&gt;&amp;nbsp; &amp;nbsp;&quot;attachments&quot;:[&lt;/div&gt;&lt;div style=&quot;border-color: var(--border-color);&quot;&gt;&amp;nbsp; &amp;nbsp; &amp;nbsp; {&amp;nbsp;&lt;span style=&quot;background-color: initial;&quot;&gt;&quot;name&quot;:&quot;amostras_template01&quot;,&lt;/span&gt;&lt;span style=&quot;background-color: initial;&quot;&gt;&quot;description&quot;:&quot;Amostras template01&quot;&amp;nbsp;&lt;/span&gt;&lt;span style=&quot;background-color: initial;&quot;&gt;},&lt;/span&gt;&lt;/div&gt;&lt;div style=&quot;border-color: var(--border-color);&quot;&gt;&amp;nbsp; &amp;nbsp; &amp;nbsp; {&amp;nbsp;&lt;span style=&quot;background-color: initial;&quot;&gt;&quot;name&quot;:&quot;amostras_template02&quot;,&lt;/span&gt;&lt;span style=&quot;background-color: initial;&quot;&gt;&quot;description&quot;:&quot;Amostras template02&quot;&amp;nbsp;&lt;/span&gt;&lt;span style=&quot;background-color: initial;&quot;&gt;},&lt;/span&gt;&lt;/div&gt;&lt;div style=&quot;border-color: var(--border-color);&quot;&gt;&amp;nbsp; &amp;nbsp; &amp;nbsp; {&amp;nbsp;&lt;span style=&quot;background-color: initial;&quot;&gt;&quot;name&quot;:&quot;amostras_template03&quot;,&lt;/span&gt;&lt;span style=&quot;background-color: initial;&quot;&gt;&quot;description&quot;:&quot;Amostras template03&quot;&amp;nbsp;&lt;/span&gt;&lt;span style=&quot;background-color: initial;&quot;&gt;}&lt;/span&gt;&lt;/div&gt;&lt;div style=&quot;border-color: var(--border-color);&quot;&gt;&amp;nbsp; &amp;nbsp;]&lt;/div&gt;&lt;div style=&quot;border-color: var(--border-color);&quot;&gt;}&lt;/div&gt;&lt;/div&gt;" style="rounded=0;whiteSpace=wrap;html=1;" parent="1" vertex="1">
          <mxGeometry x="-86" y="650" width="456" height="190" as="geometry" />
        </mxCell>
        <mxCell id="NyPUFajkC76MvVQ8xZuw-4" value="" style="image;aspect=fixed;html=1;points=[];align=center;fontSize=12;image=img/lib/azure2/general/Files.svg;" parent="1" vertex="1">
          <mxGeometry x="-150" y="775" width="40" height="43.75" as="geometry" />
        </mxCell>
        <mxCell id="NyPUFajkC76MvVQ8xZuw-7" value="" style="edgeStyle=orthogonalEdgeStyle;rounded=0;orthogonalLoop=1;jettySize=auto;html=1;" parent="1" source="NyPUFajkC76MvVQ8xZuw-8" target="NyPUFajkC76MvVQ8xZuw-10" edge="1">
          <mxGeometry relative="1" as="geometry" />
        </mxCell>
        <mxCell id="NyPUFajkC76MvVQ8xZuw-19" value="" style="edgeStyle=orthogonalEdgeStyle;rounded=0;orthogonalLoop=1;jettySize=auto;html=1;" parent="1" source="NyPUFajkC76MvVQ8xZuw-8" target="NyPUFajkC76MvVQ8xZuw-15" edge="1">
          <mxGeometry relative="1" as="geometry">
            <Array as="points">
              <mxPoint x="505" y="650" />
            </Array>
          </mxGeometry>
        </mxCell>
        <mxCell id="NyPUFajkC76MvVQ8xZuw-8" value="Integration API" style="sketch=0;outlineConnect=0;fontColor=#232F3E;gradientColor=none;fillColor=#232F3D;strokeColor=none;dashed=0;verticalLabelPosition=bottom;verticalAlign=top;align=center;html=1;fontSize=12;fontStyle=0;aspect=fixed;pointerEvents=1;shape=mxgraph.aws4.gear;" parent="1" vertex="1">
          <mxGeometry x="491" y="730" width="30" height="30" as="geometry" />
        </mxCell>
        <mxCell id="NyPUFajkC76MvVQ8xZuw-9" value="" style="edgeStyle=orthogonalEdgeStyle;rounded=0;orthogonalLoop=1;jettySize=auto;html=1;" parent="1" source="NyPUFajkC76MvVQ8xZuw-10" target="NyPUFajkC76MvVQ8xZuw-11" edge="1">
          <mxGeometry relative="1" as="geometry" />
        </mxCell>
        <mxCell id="NyPUFajkC76MvVQ8xZuw-23" style="edgeStyle=orthogonalEdgeStyle;rounded=0;orthogonalLoop=1;jettySize=auto;html=1;" parent="1" source="NyPUFajkC76MvVQ8xZuw-10" target="NyPUFajkC76MvVQ8xZuw-22" edge="1">
          <mxGeometry relative="1" as="geometry">
            <Array as="points">
              <mxPoint x="595" y="700" />
              <mxPoint x="844" y="700" />
            </Array>
          </mxGeometry>
        </mxCell>
        <mxCell id="NyPUFajkC76MvVQ8xZuw-10" value="Data API" style="sketch=0;outlineConnect=0;fontColor=#232F3E;gradientColor=none;fillColor=#232F3D;strokeColor=none;dashed=0;verticalLabelPosition=bottom;verticalAlign=top;align=center;html=1;fontSize=12;fontStyle=0;aspect=fixed;pointerEvents=1;shape=mxgraph.aws4.gear;" parent="1" vertex="1">
          <mxGeometry x="580" y="730" width="30" height="30" as="geometry" />
        </mxCell>
        <mxCell id="NyPUFajkC76MvVQ8xZuw-14" value="" style="edgeStyle=orthogonalEdgeStyle;rounded=0;orthogonalLoop=1;jettySize=auto;html=1;" parent="1" source="NyPUFajkC76MvVQ8xZuw-11" target="NyPUFajkC76MvVQ8xZuw-12" edge="1">
          <mxGeometry relative="1" as="geometry" />
        </mxCell>
        <mxCell id="NyPUFajkC76MvVQ8xZuw-21" style="edgeStyle=orthogonalEdgeStyle;rounded=0;orthogonalLoop=1;jettySize=auto;html=1;" parent="1" source="NyPUFajkC76MvVQ8xZuw-11" target="NyPUFajkC76MvVQ8xZuw-20" edge="1">
          <mxGeometry relative="1" as="geometry" />
        </mxCell>
        <mxCell id="NyPUFajkC76MvVQ8xZuw-11" value="NMC" style="shape=cylinder3;whiteSpace=wrap;html=1;boundedLbl=1;backgroundOutline=1;size=15;" parent="1" vertex="1">
          <mxGeometry x="651" y="715" width="40" height="60" as="geometry" />
        </mxCell>
        <mxCell id="NyPUFajkC76MvVQ8xZuw-12" value="&lt;b&gt;Cycle&lt;/b&gt;&lt;table&gt;&lt;tbody&gt;&lt;tr&gt;&lt;td&gt;status&lt;br&gt;&lt;/td&gt;&lt;td&gt;await_approval&lt;/td&gt;&lt;/tr&gt;&lt;tr&gt;&lt;td&gt;WAITING_FOR_APPROVAL&lt;/td&gt;&lt;td&gt;true&lt;/td&gt;&lt;/tr&gt;&lt;/tbody&gt;&lt;/table&gt;" style="rounded=1;whiteSpace=wrap;html=1;align=center;fillColor=#fff2cc;strokeColor=#d6b656;" parent="1" vertex="1">
          <mxGeometry x="538.5" y="805" width="265" height="60" as="geometry" />
        </mxCell>
        <mxCell id="NyPUFajkC76MvVQ8xZuw-17" style="edgeStyle=orthogonalEdgeStyle;rounded=0;orthogonalLoop=1;jettySize=auto;html=1;" parent="1" source="NyPUFajkC76MvVQ8xZuw-15" target="NyPUFajkC76MvVQ8xZuw-16" edge="1">
          <mxGeometry relative="1" as="geometry" />
        </mxCell>
        <mxCell id="NyPUFajkC76MvVQ8xZuw-15" value="Attachment-Manager" style="sketch=0;outlineConnect=0;fontColor=#232F3E;gradientColor=none;fillColor=#232F3D;strokeColor=none;dashed=0;verticalLabelPosition=bottom;verticalAlign=top;align=center;html=1;fontSize=12;fontStyle=0;aspect=fixed;pointerEvents=1;shape=mxgraph.aws4.gear;" parent="1" vertex="1">
          <mxGeometry x="580" y="630" width="30" height="30" as="geometry" />
        </mxCell>
        <mxCell id="NyPUFajkC76MvVQ8xZuw-16" value="Bucket" style="outlineConnect=0;dashed=0;verticalLabelPosition=bottom;verticalAlign=top;align=center;html=1;shape=mxgraph.aws3.bucket;fillColor=#E05243;gradientColor=none;" parent="1" vertex="1">
          <mxGeometry x="685" y="630" width="30" height="30" as="geometry" />
        </mxCell>
        <mxCell id="NyPUFajkC76MvVQ8xZuw-20" value="&lt;b&gt;Mailing&lt;/b&gt;&lt;br&gt;&lt;table&gt;&lt;tbody&gt;&lt;tr&gt;&lt;td&gt;status&lt;/td&gt;&lt;td&gt;await_approval&lt;/td&gt;&lt;/tr&gt;&lt;tr&gt;&lt;td&gt;PROCESSING&lt;/td&gt;&lt;td&gt;true&lt;/td&gt;&lt;/tr&gt;&lt;/tbody&gt;&lt;/table&gt;" style="rounded=1;whiteSpace=wrap;html=1;fillColor=#d5e8d4;strokeColor=#82b366;" parent="1" vertex="1">
          <mxGeometry x="827" y="803.75" width="206" height="60" as="geometry" />
        </mxCell>
        <mxCell id="NyPUFajkC76MvVQ8xZuw-25" value="" style="edgeStyle=orthogonalEdgeStyle;rounded=0;orthogonalLoop=1;jettySize=auto;html=1;" parent="1" source="NyPUFajkC76MvVQ8xZuw-22" target="NyPUFajkC76MvVQ8xZuw-24" edge="1">
          <mxGeometry relative="1" as="geometry" />
        </mxCell>
        <mxCell id="NyPUFajkC76MvVQ8xZuw-22" value="" style="sketch=0;outlineConnect=0;fontColor=#232F3E;gradientColor=none;fillColor=#232F3D;strokeColor=none;dashed=0;verticalLabelPosition=bottom;verticalAlign=top;align=center;html=1;fontSize=12;fontStyle=0;aspect=fixed;pointerEvents=1;shape=mxgraph.aws4.email_2;" parent="1" vertex="1">
          <mxGeometry x="820" y="630" width="47.76" height="30" as="geometry" />
        </mxCell>
        <mxCell id="NyPUFajkC76MvVQ8xZuw-24" value="Enviar comunicação para os usuários aprovadores informando que o ciclo está aguardando aprovação" style="text;html=1;strokeColor=none;fillColor=none;align=center;verticalAlign=middle;whiteSpace=wrap;rounded=0;" parent="1" vertex="1">
          <mxGeometry x="910" y="605" width="170" height="80" as="geometry" />
        </mxCell>
      </root>
    </mxGraphModel>
  </diagram>
  <diagram id="2mEJLCsLMh-yi96EZ9jM" name="Cenário Ciclo Aprovado">
    <mxGraphModel dx="2429" dy="775" grid="1" gridSize="10" guides="1" tooltips="1" connect="1" arrows="1" fold="1" page="1" pageScale="1" pageWidth="827" pageHeight="1169" math="0" shadow="0">
      <root>
        <mxCell id="0" />
        <mxCell id="1" parent="0" />
        <mxCell id="j-M6mKfT3J-vTbmhicmd-1" value="" style="rounded=0;whiteSpace=wrap;html=1;fillColor=#b0e3e6;strokeColor=#0e8088;" vertex="1" parent="1">
          <mxGeometry x="-330" y="650" width="1450" height="430" as="geometry" />
        </mxCell>
        <mxCell id="drWo5inge1y1y5oIOu0V-1" value="" style="rounded=0;whiteSpace=wrap;html=1;fillColor=#dae8fc;strokeColor=#6c8ebf;" vertex="1" parent="1">
          <mxGeometry x="-330" y="290" width="1450" height="360" as="geometry" />
        </mxCell>
        <mxCell id="6DJ-iMOty9pX6qUdLrJB-1" value="" style="rounded=0;whiteSpace=wrap;html=1;fillColor=#f5f5f5;strokeColor=#666666;fontColor=#333333;" vertex="1" parent="1">
          <mxGeometry x="-330" y="50" width="1450" height="240" as="geometry" />
        </mxCell>
        <mxCell id="OV7E3aPPSTSt9_KhZe1F-1" style="edgeStyle=orthogonalEdgeStyle;rounded=0;orthogonalLoop=1;jettySize=auto;html=1;" parent="1" source="OV7E3aPPSTSt9_KhZe1F-2" target="OV7E3aPPSTSt9_KhZe1F-21" edge="1">
          <mxGeometry relative="1" as="geometry">
            <Array as="points">
              <mxPoint x="330" y="130" />
              <mxPoint x="330" y="130" />
            </Array>
          </mxGeometry>
        </mxCell>
        <mxCell id="OV7E3aPPSTSt9_KhZe1F-2" value="&lt;div style=&quot;border-color: var(--border-color); text-align: left;&quot;&gt;{&lt;/div&gt;&lt;div style=&quot;border-color: var(--border-color); text-align: left;&quot;&gt;&amp;nbsp; &quot;mailing&quot;:{&lt;/div&gt;&lt;div style=&quot;border-color: var(--border-color); text-align: left;&quot;&gt;&amp;nbsp; &amp;nbsp; &quot;cycle&quot;:{&lt;/div&gt;&lt;div style=&quot;border-color: var(--border-color); text-align: left;&quot;&gt;&amp;nbsp; &amp;nbsp; &amp;nbsp; &quot;name&quot;:&quot;20230921&quot;,&lt;/div&gt;&lt;div style=&quot;border-color: var(--border-color); text-align: left;&quot;&gt;&amp;nbsp; &amp;nbsp; &amp;nbsp; &quot;brandId&quot;:19&lt;/div&gt;&lt;div style=&quot;border-color: var(--border-color); text-align: left;&quot;&gt;&amp;nbsp; &amp;nbsp; },&lt;/div&gt;&lt;div style=&quot;border-color: var(--border-color); text-align: left;&quot;&gt;&amp;nbsp; &amp;nbsp; &quot;name&quot;:&quot;Maling_name15092023114411211.txt&quot;&lt;/div&gt;&lt;div style=&quot;border-color: var(--border-color); text-align: left;&quot;&gt;&amp;nbsp; }&lt;/div&gt;&lt;div style=&quot;border-color: var(--border-color); text-align: left;&quot;&gt;}&lt;/div&gt;" style="rounded=0;whiteSpace=wrap;html=1;" parent="1" vertex="1">
          <mxGeometry x="-80" y="80" width="310" height="200" as="geometry" />
        </mxCell>
        <mxCell id="OV7E3aPPSTSt9_KhZe1F-3" value="&lt;b&gt;Mailing&lt;/b&gt;&lt;br&gt;&lt;table&gt;&lt;tbody&gt;&lt;tr&gt;&lt;td&gt;status&lt;/td&gt;&lt;td&gt;await_approval&lt;/td&gt;&lt;/tr&gt;&lt;tr&gt;&lt;td&gt;CREATED&lt;/td&gt;&lt;td&gt;NULL&lt;/td&gt;&lt;/tr&gt;&lt;/tbody&gt;&lt;/table&gt;" style="rounded=1;whiteSpace=wrap;html=1;fillColor=#d5e8d4;strokeColor=#82b366;" parent="1" vertex="1">
          <mxGeometry x="710" y="200" width="206" height="60" as="geometry" />
        </mxCell>
        <mxCell id="OV7E3aPPSTSt9_KhZe1F-4" value="" style="edgeStyle=orthogonalEdgeStyle;rounded=0;orthogonalLoop=1;jettySize=auto;html=1;" parent="1" source="OV7E3aPPSTSt9_KhZe1F-5" target="OV7E3aPPSTSt9_KhZe1F-2" edge="1">
          <mxGeometry relative="1" as="geometry" />
        </mxCell>
        <mxCell id="OV7E3aPPSTSt9_KhZe1F-5" value="Recepção&lt;br&gt;SCP" style="ellipse;whiteSpace=wrap;html=1;" parent="1" vertex="1">
          <mxGeometry x="-280" y="140" width="120" height="80" as="geometry" />
        </mxCell>
        <mxCell id="OV7E3aPPSTSt9_KhZe1F-6" value="Inicio de Processamento&lt;br&gt;SCP" style="ellipse;whiteSpace=wrap;html=1;" parent="1" vertex="1">
          <mxGeometry x="-290" y="425" width="120" height="80" as="geometry" />
        </mxCell>
        <mxCell id="OV7E3aPPSTSt9_KhZe1F-7" value="&lt;b&gt;Cycle&lt;/b&gt;&lt;table&gt;&lt;tbody&gt;&lt;tr&gt;&lt;td&gt;status&lt;br&gt;&lt;/td&gt;&lt;td&gt;await_approval&lt;/td&gt;&lt;/tr&gt;&lt;tr&gt;&lt;td&gt;APPROVED&lt;/td&gt;&lt;td&gt;true&lt;/td&gt;&lt;/tr&gt;&lt;/tbody&gt;&lt;/table&gt;" style="rounded=1;whiteSpace=wrap;html=1;align=center;fillColor=#fff2cc;strokeColor=#d6b656;" parent="1" vertex="1">
          <mxGeometry x="520" y="200" width="170" height="60" as="geometry" />
        </mxCell>
        <mxCell id="OV7E3aPPSTSt9_KhZe1F-8" value="&lt;b&gt;Mailing&lt;/b&gt;&lt;br&gt;&lt;table&gt;&lt;tbody&gt;&lt;tr&gt;&lt;td&gt;status&lt;/td&gt;&lt;td&gt;await_approval&lt;/td&gt;&lt;/tr&gt;&lt;tr&gt;&lt;td&gt;PROCESSING&lt;/td&gt;&lt;td&gt;true&lt;/td&gt;&lt;/tr&gt;&lt;/tbody&gt;&lt;/table&gt;" style="rounded=1;whiteSpace=wrap;html=1;fillColor=#d5e8d4;strokeColor=#82b366;" parent="1" vertex="1">
          <mxGeometry x="800" y="525" width="206" height="60" as="geometry" />
        </mxCell>
        <mxCell id="OV7E3aPPSTSt9_KhZe1F-9" value="&lt;b&gt;Cycle&lt;/b&gt;&lt;table&gt;&lt;tbody&gt;&lt;tr&gt;&lt;td&gt;status&lt;br&gt;&lt;/td&gt;&lt;td&gt;await_approval&lt;/td&gt;&lt;/tr&gt;&lt;tr&gt;&lt;td&gt;APPROVED&lt;/td&gt;&lt;td&gt;true&lt;/td&gt;&lt;/tr&gt;&lt;/tbody&gt;&lt;/table&gt;" style="rounded=1;whiteSpace=wrap;html=1;align=center;fillColor=#fff2cc;strokeColor=#d6b656;" parent="1" vertex="1">
          <mxGeometry x="579" y="525" width="190" height="60" as="geometry" />
        </mxCell>
        <mxCell id="OV7E3aPPSTSt9_KhZe1F-10" value="" style="edgeStyle=orthogonalEdgeStyle;rounded=0;orthogonalLoop=1;jettySize=auto;html=1;" parent="1" source="OV7E3aPPSTSt9_KhZe1F-11" target="OV7E3aPPSTSt9_KhZe1F-13" edge="1">
          <mxGeometry relative="1" as="geometry" />
        </mxCell>
        <mxCell id="OV7E3aPPSTSt9_KhZe1F-11" value="Integration API" style="sketch=0;outlineConnect=0;fontColor=#232F3E;gradientColor=none;fillColor=#232F3D;strokeColor=none;dashed=0;verticalLabelPosition=bottom;verticalAlign=top;align=center;html=1;fontSize=12;fontStyle=0;aspect=fixed;pointerEvents=1;shape=mxgraph.aws4.gear;" parent="1" vertex="1">
          <mxGeometry x="540" y="340" width="30" height="30" as="geometry" />
        </mxCell>
        <mxCell id="OV7E3aPPSTSt9_KhZe1F-12" value="" style="edgeStyle=orthogonalEdgeStyle;rounded=0;orthogonalLoop=1;jettySize=auto;html=1;" parent="1" source="OV7E3aPPSTSt9_KhZe1F-13" target="OV7E3aPPSTSt9_KhZe1F-19" edge="1">
          <mxGeometry relative="1" as="geometry" />
        </mxCell>
        <mxCell id="OV7E3aPPSTSt9_KhZe1F-13" value="Data API" style="sketch=0;outlineConnect=0;fontColor=#232F3E;gradientColor=none;fillColor=#232F3D;strokeColor=none;dashed=0;verticalLabelPosition=bottom;verticalAlign=top;align=center;html=1;fontSize=12;fontStyle=0;aspect=fixed;pointerEvents=1;shape=mxgraph.aws4.gear;" parent="1" vertex="1">
          <mxGeometry x="629" y="340" width="30" height="30" as="geometry" />
        </mxCell>
        <mxCell id="OV7E3aPPSTSt9_KhZe1F-14" value="" style="edgeStyle=orthogonalEdgeStyle;rounded=0;orthogonalLoop=1;jettySize=auto;html=1;" parent="1" source="OV7E3aPPSTSt9_KhZe1F-6" target="OV7E3aPPSTSt9_KhZe1F-16" edge="1">
          <mxGeometry relative="1" as="geometry">
            <mxPoint x="-140" y="360" as="sourcePoint" />
            <mxPoint x="40" y="570" as="targetPoint" />
          </mxGeometry>
        </mxCell>
        <mxCell id="OV7E3aPPSTSt9_KhZe1F-15" style="edgeStyle=orthogonalEdgeStyle;rounded=0;orthogonalLoop=1;jettySize=auto;html=1;" parent="1" source="OV7E3aPPSTSt9_KhZe1F-16" target="OV7E3aPPSTSt9_KhZe1F-11" edge="1">
          <mxGeometry relative="1" as="geometry" />
        </mxCell>
        <mxCell id="OV7E3aPPSTSt9_KhZe1F-16" value="&lt;div style=&quot;border-color: var(--border-color); text-align: left;&quot;&gt;{&lt;/div&gt;&lt;div style=&quot;border-color: var(--border-color); text-align: left;&quot;&gt;&amp;nbsp; &quot;mailing&quot;:{&lt;/div&gt;&lt;div style=&quot;border-color: var(--border-color); text-align: left;&quot;&gt;&amp;nbsp; &amp;nbsp; &quot;cycle&quot;:{&lt;/div&gt;&lt;div style=&quot;border-color: var(--border-color); text-align: left;&quot;&gt;&amp;nbsp; &amp;nbsp; &amp;nbsp; &quot;name&quot;:&quot;20230921&quot;,&lt;/div&gt;&lt;div style=&quot;border-color: var(--border-color); text-align: left;&quot;&gt;&amp;nbsp; &amp;nbsp; &amp;nbsp; &quot;brandId&quot;:19,&lt;/div&gt;&lt;div style=&quot;border-color: var(--border-color); text-align: left;&quot;&gt;&lt;div style=&quot;border-color: var(--border-color);&quot;&gt;&amp;nbsp; &amp;nbsp; &amp;nbsp; &quot;applicationId&quot;: 4539,&lt;/div&gt;&lt;div style=&quot;border-color: var(--border-color);&quot;&gt;&amp;nbsp; &amp;nbsp; &amp;nbsp; &quot;applicationName&quot;: &quot;Fatura 1a Via&quot;,&lt;/div&gt;&lt;div style=&quot;border-color: var(--border-color);&quot;&gt;&amp;nbsp; &amp;nbsp; &amp;nbsp;&amp;nbsp;&lt;b style=&quot;border-color: var(--border-color);&quot;&gt;&quot;awaitApproval&quot;: true&lt;/b&gt;&lt;br&gt;&lt;/div&gt;&lt;/div&gt;&lt;div style=&quot;border-color: var(--border-color); text-align: left;&quot;&gt;&amp;nbsp; &amp;nbsp; },&lt;/div&gt;&lt;div style=&quot;border-color: var(--border-color); text-align: left;&quot;&gt;&amp;nbsp; &amp;nbsp; &quot;name&quot;:&quot;Maling_name15092023114411211.txt&quot;,&lt;/div&gt;&lt;div style=&quot;border-color: var(--border-color); text-align: left;&quot;&gt;&lt;div style=&quot;border-color: var(--border-color);&quot;&gt;&amp;nbsp; &amp;nbsp; &quot;referenceId&quot;: 44894599,&lt;/div&gt;&lt;div style=&quot;border-color: var(--border-color);&quot;&gt;&amp;nbsp; &amp;nbsp; &quot;processmentId&quot;: 1408784,&lt;/div&gt;&lt;div style=&quot;border-color: var(--border-color);&quot;&gt;&amp;nbsp; &amp;nbsp; &quot;inputQuantity&quot;: 502455,&lt;/div&gt;&lt;div style=&quot;border-color: var(--border-color);&quot;&gt;&amp;nbsp; &amp;nbsp; &quot;description&quot;: &quot;Faturas - 1a Via - E-mail&quot;,&lt;/div&gt;&lt;div style=&quot;border-color: var(--border-color);&quot;&gt;&lt;div style=&quot;border-color: var(--border-color);&quot;&gt;&amp;nbsp; &amp;nbsp; &quot;processmentSet&quot;: [&lt;/div&gt;&lt;div style=&quot;border-color: var(--border-color);&quot;&gt;&amp;nbsp; &amp;nbsp; &amp;nbsp; {&lt;/div&gt;&lt;div style=&quot;border-color: var(--border-color);&quot;&gt;&amp;nbsp; &amp;nbsp; &amp;nbsp; &amp;nbsp; &quot;name&quot;: &quot;Maling_name15092023114411211_PACOTE001.zip&quot;&lt;/div&gt;&lt;div style=&quot;border-color: var(--border-color);&quot;&gt;&amp;nbsp; &amp;nbsp; &amp;nbsp; },&lt;/div&gt;&lt;div style=&quot;border-color: var(--border-color);&quot;&gt;&amp;nbsp; &amp;nbsp; &amp;nbsp; {&lt;/div&gt;&lt;div style=&quot;border-color: var(--border-color);&quot;&gt;&amp;nbsp; &amp;nbsp; &amp;nbsp; &amp;nbsp; &quot;name&quot;: &quot;Maling_name15092023114411211_PACOTE002.zip&quot;&lt;br&gt;&lt;/div&gt;&lt;div style=&quot;border-color: var(--border-color);&quot;&gt;&amp;nbsp; &amp;nbsp; &amp;nbsp; }&lt;/div&gt;&lt;div style=&quot;border-color: var(--border-color);&quot;&gt;&amp;nbsp; &amp;nbsp;]&lt;/div&gt;&lt;/div&gt;&lt;/div&gt;&lt;div style=&quot;border-color: var(--border-color); text-align: left;&quot;&gt;&amp;nbsp; }&lt;/div&gt;&lt;div style=&quot;border-color: var(--border-color); text-align: left;&quot;&gt;}&lt;/div&gt;" style="rounded=0;whiteSpace=wrap;html=1;" parent="1" vertex="1">
          <mxGeometry x="-80" y="294" width="450" height="350" as="geometry" />
        </mxCell>
        <mxCell id="OV7E3aPPSTSt9_KhZe1F-17" value="" style="edgeStyle=orthogonalEdgeStyle;rounded=0;orthogonalLoop=1;jettySize=auto;html=1;" parent="1" source="OV7E3aPPSTSt9_KhZe1F-19" target="OV7E3aPPSTSt9_KhZe1F-9" edge="1">
          <mxGeometry relative="1" as="geometry" />
        </mxCell>
        <mxCell id="OV7E3aPPSTSt9_KhZe1F-18" style="edgeStyle=orthogonalEdgeStyle;rounded=0;orthogonalLoop=1;jettySize=auto;html=1;exitX=0.5;exitY=1;exitDx=0;exitDy=0;exitPerimeter=0;" parent="1" source="OV7E3aPPSTSt9_KhZe1F-19" target="OV7E3aPPSTSt9_KhZe1F-8" edge="1">
          <mxGeometry relative="1" as="geometry" />
        </mxCell>
        <mxCell id="OV7E3aPPSTSt9_KhZe1F-19" value="NMC" style="shape=cylinder3;whiteSpace=wrap;html=1;boundedLbl=1;backgroundOutline=1;size=15;" parent="1" vertex="1">
          <mxGeometry x="769" y="325" width="40" height="60" as="geometry" />
        </mxCell>
        <mxCell id="OV7E3aPPSTSt9_KhZe1F-20" value="" style="edgeStyle=orthogonalEdgeStyle;rounded=0;orthogonalLoop=1;jettySize=auto;html=1;" parent="1" source="OV7E3aPPSTSt9_KhZe1F-21" target="OV7E3aPPSTSt9_KhZe1F-24" edge="1">
          <mxGeometry relative="1" as="geometry" />
        </mxCell>
        <mxCell id="OV7E3aPPSTSt9_KhZe1F-21" value="Data API" style="sketch=0;outlineConnect=0;fontColor=#232F3E;gradientColor=none;fillColor=#232F3D;strokeColor=none;dashed=0;verticalLabelPosition=bottom;verticalAlign=top;align=center;html=1;fontSize=12;fontStyle=0;aspect=fixed;pointerEvents=1;shape=mxgraph.aws4.gear;" parent="1" vertex="1">
          <mxGeometry x="580" y="115" width="30" height="30" as="geometry" />
        </mxCell>
        <mxCell id="OV7E3aPPSTSt9_KhZe1F-22" style="edgeStyle=orthogonalEdgeStyle;rounded=0;orthogonalLoop=1;jettySize=auto;html=1;exitX=0.5;exitY=1;exitDx=0;exitDy=0;exitPerimeter=0;" parent="1" source="OV7E3aPPSTSt9_KhZe1F-24" target="OV7E3aPPSTSt9_KhZe1F-3" edge="1">
          <mxGeometry relative="1" as="geometry" />
        </mxCell>
        <mxCell id="OV7E3aPPSTSt9_KhZe1F-23" value="" style="edgeStyle=orthogonalEdgeStyle;rounded=0;orthogonalLoop=1;jettySize=auto;html=1;" parent="1" source="OV7E3aPPSTSt9_KhZe1F-24" target="OV7E3aPPSTSt9_KhZe1F-7" edge="1">
          <mxGeometry relative="1" as="geometry" />
        </mxCell>
        <mxCell id="OV7E3aPPSTSt9_KhZe1F-24" value="NMC" style="shape=cylinder3;whiteSpace=wrap;html=1;boundedLbl=1;backgroundOutline=1;size=15;" parent="1" vertex="1">
          <mxGeometry x="680" y="100" width="40" height="60" as="geometry" />
        </mxCell>
        <mxCell id="OV7E3aPPSTSt9_KhZe1F-25" value="Fim de pacote&amp;nbsp;&lt;br&gt;SCP" style="ellipse;whiteSpace=wrap;html=1;" parent="1" vertex="1">
          <mxGeometry x="-300" y="690" width="120" height="80" as="geometry" />
        </mxCell>
        <mxCell id="OV7E3aPPSTSt9_KhZe1F-26" value="&lt;b&gt;Mailing&lt;/b&gt;&lt;br&gt;&lt;table&gt;&lt;tbody&gt;&lt;tr&gt;&lt;td&gt;status&lt;/td&gt;&lt;td&gt;await_approval&lt;/td&gt;&lt;/tr&gt;&lt;tr&gt;&lt;td&gt;WAITING_FOR_APPROVAL&lt;/td&gt;&lt;td&gt;true&lt;/td&gt;&lt;/tr&gt;&lt;/tbody&gt;&lt;/table&gt;" style="rounded=1;whiteSpace=wrap;html=1;fillColor=#d5e8d4;strokeColor=#82b366;" parent="1" vertex="1">
          <mxGeometry x="854" y="850" width="260" height="60" as="geometry" />
        </mxCell>
        <mxCell id="OV7E3aPPSTSt9_KhZe1F-27" value="&lt;b&gt;Cycle&lt;/b&gt;&lt;table&gt;&lt;tbody&gt;&lt;tr&gt;&lt;td&gt;status&lt;br&gt;&lt;/td&gt;&lt;td&gt;await_approval&lt;/td&gt;&lt;/tr&gt;&lt;tr&gt;&lt;td&gt;APPROVED&lt;/td&gt;&lt;td&gt;true&lt;/td&gt;&lt;/tr&gt;&lt;/tbody&gt;&lt;/table&gt;" style="rounded=1;whiteSpace=wrap;html=1;align=center;fillColor=#fff2cc;strokeColor=#d6b656;" parent="1" vertex="1">
          <mxGeometry x="669" y="850" width="171" height="60" as="geometry" />
        </mxCell>
        <mxCell id="OV7E3aPPSTSt9_KhZe1F-28" value="" style="edgeStyle=orthogonalEdgeStyle;rounded=0;orthogonalLoop=1;jettySize=auto;html=1;" parent="1" source="OV7E3aPPSTSt9_KhZe1F-30" target="OV7E3aPPSTSt9_KhZe1F-32" edge="1">
          <mxGeometry relative="1" as="geometry" />
        </mxCell>
        <mxCell id="OV7E3aPPSTSt9_KhZe1F-29" style="edgeStyle=orthogonalEdgeStyle;rounded=0;orthogonalLoop=1;jettySize=auto;html=1;" parent="1" source="OV7E3aPPSTSt9_KhZe1F-30" target="OV7E3aPPSTSt9_KhZe1F-41" edge="1">
          <mxGeometry relative="1" as="geometry">
            <mxPoint x="540" y="744.999659183859" as="sourcePoint" />
            <mxPoint x="885" y="975" as="targetPoint" />
            <Array as="points">
              <mxPoint x="540" y="970" />
            </Array>
          </mxGeometry>
        </mxCell>
        <mxCell id="OV7E3aPPSTSt9_KhZe1F-30" value="Integration API" style="sketch=0;outlineConnect=0;fontColor=#232F3E;gradientColor=none;fillColor=#232F3D;strokeColor=none;dashed=0;verticalLabelPosition=bottom;verticalAlign=top;align=center;html=1;fontSize=12;fontStyle=0;aspect=fixed;pointerEvents=1;shape=mxgraph.aws4.gear;" parent="1" vertex="1">
          <mxGeometry x="520" y="715" width="30" height="30" as="geometry" />
        </mxCell>
        <mxCell id="OV7E3aPPSTSt9_KhZe1F-31" value="" style="edgeStyle=orthogonalEdgeStyle;rounded=0;orthogonalLoop=1;jettySize=auto;html=1;" parent="1" source="OV7E3aPPSTSt9_KhZe1F-32" target="OV7E3aPPSTSt9_KhZe1F-38" edge="1">
          <mxGeometry relative="1" as="geometry" />
        </mxCell>
        <mxCell id="OV7E3aPPSTSt9_KhZe1F-32" value="Data API" style="sketch=0;outlineConnect=0;fontColor=#232F3E;gradientColor=none;fillColor=#232F3D;strokeColor=none;dashed=0;verticalLabelPosition=bottom;verticalAlign=top;align=center;html=1;fontSize=12;fontStyle=0;aspect=fixed;pointerEvents=1;shape=mxgraph.aws4.gear;" parent="1" vertex="1">
          <mxGeometry x="609" y="715" width="30" height="30" as="geometry" />
        </mxCell>
        <mxCell id="OV7E3aPPSTSt9_KhZe1F-33" value="" style="edgeStyle=orthogonalEdgeStyle;rounded=0;orthogonalLoop=1;jettySize=auto;html=1;" parent="1" source="OV7E3aPPSTSt9_KhZe1F-25" target="OV7E3aPPSTSt9_KhZe1F-35" edge="1">
          <mxGeometry relative="1" as="geometry">
            <mxPoint x="-140" y="740" as="sourcePoint" />
            <mxPoint x="40" y="950" as="targetPoint" />
          </mxGeometry>
        </mxCell>
        <mxCell id="OV7E3aPPSTSt9_KhZe1F-34" style="edgeStyle=orthogonalEdgeStyle;rounded=0;orthogonalLoop=1;jettySize=auto;html=1;" parent="1" source="OV7E3aPPSTSt9_KhZe1F-35" target="OV7E3aPPSTSt9_KhZe1F-30" edge="1">
          <mxGeometry relative="1" as="geometry" />
        </mxCell>
        <mxCell id="OV7E3aPPSTSt9_KhZe1F-35" value="&lt;div style=&quot;border-color: var(--border-color); text-align: left;&quot;&gt;{&lt;/div&gt;&lt;div style=&quot;border-color: var(--border-color); text-align: left;&quot;&gt;&amp;nbsp; &quot;mailing&quot;:{&lt;/div&gt;&lt;div style=&quot;border-color: var(--border-color); text-align: left;&quot;&gt;&amp;nbsp; &amp;nbsp; &quot;cycle&quot;:{&lt;/div&gt;&lt;div style=&quot;border-color: var(--border-color); text-align: left;&quot;&gt;&amp;nbsp; &amp;nbsp; &amp;nbsp; &quot;name&quot;:&quot;20230921&quot;,&lt;/div&gt;&lt;div style=&quot;border-color: var(--border-color); text-align: left;&quot;&gt;&amp;nbsp; &amp;nbsp; &amp;nbsp; &quot;brandId&quot;:19,&lt;/div&gt;&lt;div style=&quot;border-color: var(--border-color); text-align: left;&quot;&gt;&lt;div style=&quot;border-color: var(--border-color);&quot;&gt;&amp;nbsp; &amp;nbsp; &amp;nbsp; &quot;applicationId&quot;: 4539&lt;/div&gt;&lt;/div&gt;&lt;div style=&quot;border-color: var(--border-color); text-align: left;&quot;&gt;&amp;nbsp; &amp;nbsp; },&lt;/div&gt;&lt;div style=&quot;border-color: var(--border-color); text-align: left;&quot;&gt;&amp;nbsp; &amp;nbsp; &quot;name&quot;: &quot;Maling_name15092023114411211_PACOTE002.zip&quot;&lt;/div&gt;&lt;div style=&quot;border-color: var(--border-color); text-align: left;&quot;&gt;}&lt;/div&gt;" style="rounded=0;whiteSpace=wrap;html=1;" parent="1" vertex="1">
          <mxGeometry x="-80" y="655" width="450" height="150" as="geometry" />
        </mxCell>
        <mxCell id="OV7E3aPPSTSt9_KhZe1F-36" value="" style="edgeStyle=orthogonalEdgeStyle;rounded=0;orthogonalLoop=1;jettySize=auto;html=1;" parent="1" source="OV7E3aPPSTSt9_KhZe1F-38" target="OV7E3aPPSTSt9_KhZe1F-27" edge="1">
          <mxGeometry relative="1" as="geometry" />
        </mxCell>
        <mxCell id="OV7E3aPPSTSt9_KhZe1F-37" style="edgeStyle=orthogonalEdgeStyle;rounded=0;orthogonalLoop=1;jettySize=auto;html=1;exitX=0.5;exitY=1;exitDx=0;exitDy=0;exitPerimeter=0;" parent="1" source="OV7E3aPPSTSt9_KhZe1F-38" target="OV7E3aPPSTSt9_KhZe1F-26" edge="1">
          <mxGeometry relative="1" as="geometry" />
        </mxCell>
        <mxCell id="OV7E3aPPSTSt9_KhZe1F-38" value="NMC" style="shape=cylinder3;whiteSpace=wrap;html=1;boundedLbl=1;backgroundOutline=1;size=15;" parent="1" vertex="1">
          <mxGeometry x="840" y="700" width="40" height="60" as="geometry" />
        </mxCell>
        <mxCell id="OV7E3aPPSTSt9_KhZe1F-39" value="&lt;b&gt;Mailing&lt;/b&gt;&lt;br&gt;&lt;table&gt;&lt;tbody&gt;&lt;tr&gt;&lt;td&gt;status&lt;/td&gt;&lt;td&gt;await_approval&lt;/td&gt;&lt;/tr&gt;&lt;tr&gt;&lt;td&gt;FINISHED&lt;/td&gt;&lt;td&gt;true&lt;/td&gt;&lt;/tr&gt;&lt;/tbody&gt;&lt;/table&gt;" style="rounded=1;whiteSpace=wrap;html=1;fillColor=#d5e8d4;strokeColor=#82b366;" parent="1" vertex="1">
          <mxGeometry x="870" y="1000" width="210" height="60" as="geometry" />
        </mxCell>
        <mxCell id="OV7E3aPPSTSt9_KhZe1F-40" style="edgeStyle=orthogonalEdgeStyle;rounded=0;orthogonalLoop=1;jettySize=auto;html=1;" parent="1" source="OV7E3aPPSTSt9_KhZe1F-41" target="OV7E3aPPSTSt9_KhZe1F-39" edge="1">
          <mxGeometry relative="1" as="geometry" />
        </mxCell>
        <mxCell id="OV7E3aPPSTSt9_KhZe1F-41" value="Data API" style="sketch=0;outlineConnect=0;fontColor=#232F3E;gradientColor=none;fillColor=#232F3D;strokeColor=none;dashed=0;verticalLabelPosition=bottom;verticalAlign=top;align=center;html=1;fontSize=12;fontStyle=0;aspect=fixed;pointerEvents=1;shape=mxgraph.aws4.gear;direction=south;" parent="1" vertex="1">
          <mxGeometry x="639" y="950" width="30" height="30" as="geometry" />
        </mxCell>
      </root>
    </mxGraphModel>
  </diagram>
  <diagram name="Notificações para Lista de Aprovadores Abordagem Kafka" id="0r1IOSU8-viD9m5p085L">
    <mxGraphModel dx="1602" dy="775" grid="1" gridSize="10" guides="1" tooltips="1" connect="1" arrows="1" fold="1" page="1" pageScale="1" pageWidth="827" pageHeight="1169" math="0" shadow="0">
      <root>
        <mxCell id="RU653SfCOMTX8gNQOs-m-0" />
        <mxCell id="RU653SfCOMTX8gNQOs-m-1" parent="RU653SfCOMTX8gNQOs-m-0" />
        <mxCell id="RU653SfCOMTX8gNQOs-m-2" value="SCP" style="shape=umlActor;verticalLabelPosition=bottom;verticalAlign=top;html=1;outlineConnect=0;" vertex="1" parent="RU653SfCOMTX8gNQOs-m-1">
          <mxGeometry x="110" y="200" width="30" height="60" as="geometry" />
        </mxCell>
        <mxCell id="RU653SfCOMTX8gNQOs-m-3" value="" style="edgeStyle=orthogonalEdgeStyle;rounded=0;orthogonalLoop=1;jettySize=auto;html=1;" edge="1" parent="RU653SfCOMTX8gNQOs-m-1" source="RU653SfCOMTX8gNQOs-m-2" target="RU653SfCOMTX8gNQOs-m-7">
          <mxGeometry relative="1" as="geometry">
            <mxPoint x="310" y="240" as="sourcePoint" />
          </mxGeometry>
        </mxCell>
        <mxCell id="EBToT4pqiQOrfehGCony-14" value="1. SCP informa que o ciclo &lt;br&gt;está aguardando informação" style="edgeLabel;html=1;align=center;verticalAlign=middle;resizable=0;points=[];" vertex="1" connectable="0" parent="RU653SfCOMTX8gNQOs-m-3">
          <mxGeometry x="-0.4107" y="-1" relative="1" as="geometry">
            <mxPoint x="44" y="-1" as="offset" />
          </mxGeometry>
        </mxCell>
        <mxCell id="RU653SfCOMTX8gNQOs-m-5" value="" style="edgeStyle=orthogonalEdgeStyle;rounded=0;orthogonalLoop=1;jettySize=auto;html=1;" edge="1" parent="RU653SfCOMTX8gNQOs-m-1" source="RU653SfCOMTX8gNQOs-m-7" target="RU653SfCOMTX8gNQOs-m-10">
          <mxGeometry relative="1" as="geometry" />
        </mxCell>
        <mxCell id="EBToT4pqiQOrfehGCony-1" style="edgeStyle=orthogonalEdgeStyle;rounded=0;orthogonalLoop=1;jettySize=auto;html=1;" edge="1" parent="RU653SfCOMTX8gNQOs-m-1" source="RU653SfCOMTX8gNQOs-m-7" target="EBToT4pqiQOrfehGCony-0">
          <mxGeometry relative="1" as="geometry" />
        </mxCell>
        <mxCell id="RU653SfCOMTX8gNQOs-m-7" value="Data API" style="rounded=1;whiteSpace=wrap;html=1;" vertex="1" parent="RU653SfCOMTX8gNQOs-m-1">
          <mxGeometry x="354" y="210" width="120" height="60" as="geometry" />
        </mxCell>
        <mxCell id="RU653SfCOMTX8gNQOs-m-8" value="" style="edgeStyle=orthogonalEdgeStyle;rounded=0;orthogonalLoop=1;jettySize=auto;html=1;" edge="1" parent="RU653SfCOMTX8gNQOs-m-1" source="RU653SfCOMTX8gNQOs-m-9" target="RU653SfCOMTX8gNQOs-m-12">
          <mxGeometry relative="1" as="geometry" />
        </mxCell>
        <mxCell id="RU653SfCOMTX8gNQOs-m-9" value="DC" style="rounded=1;whiteSpace=wrap;html=1;" vertex="1" parent="RU653SfCOMTX8gNQOs-m-1">
          <mxGeometry x="1175" y="80" width="120" height="60" as="geometry" />
        </mxCell>
        <mxCell id="RU653SfCOMTX8gNQOs-m-10" value="Banco NMC" style="shape=cylinder3;whiteSpace=wrap;html=1;boundedLbl=1;backgroundOutline=1;size=15;" vertex="1" parent="RU653SfCOMTX8gNQOs-m-1">
          <mxGeometry x="384" y="310" width="60" height="80" as="geometry" />
        </mxCell>
        <mxCell id="RU653SfCOMTX8gNQOs-m-11" value="" style="edgeStyle=orthogonalEdgeStyle;rounded=0;orthogonalLoop=1;jettySize=auto;html=1;" edge="1" parent="RU653SfCOMTX8gNQOs-m-1" source="RU653SfCOMTX8gNQOs-m-12" target="RU653SfCOMTX8gNQOs-m-13">
          <mxGeometry relative="1" as="geometry" />
        </mxCell>
        <mxCell id="RU653SfCOMTX8gNQOs-m-12" value="Banco&lt;br&gt;&amp;nbsp;DC" style="shape=cylinder3;whiteSpace=wrap;html=1;boundedLbl=1;backgroundOutline=1;size=15;" vertex="1" parent="RU653SfCOMTX8gNQOs-m-1">
          <mxGeometry x="1205" y="170" width="60" height="80" as="geometry" />
        </mxCell>
        <mxCell id="RU653SfCOMTX8gNQOs-m-13" value="&lt;p&gt;Aqui contem a lista de usuários aprovadores e qual o canal de notificação&lt;/p&gt;" style="text;html=1;strokeColor=none;fillColor=none;spacing=5;spacingTop=-20;whiteSpace=wrap;overflow=hidden;rounded=0;" vertex="1" parent="RU653SfCOMTX8gNQOs-m-1">
          <mxGeometry x="1140" y="290" width="190" height="60" as="geometry" />
        </mxCell>
        <mxCell id="RU653SfCOMTX8gNQOs-m-16" value="&lt;div style=&quot;text-align: left;&quot;&gt;&lt;span style=&quot;background-color: initial;&quot;&gt;Contras:&lt;/span&gt;&lt;br&gt;&lt;/div&gt;&lt;div style=&quot;text-align: left;&quot;&gt;&lt;br&gt;&lt;/div&gt;&lt;div style=&quot;text-align: left;&quot;&gt;&lt;span style=&quot;background-color: initial;&quot;&gt;NMC precisa saber o companyId e o brandId&lt;/span&gt;&lt;/div&gt;&lt;div style=&quot;text-align: left;&quot;&gt;&lt;span style=&quot;background-color: initial;&quot;&gt;&amp;nbsp;tanto no &quot;Aguardando aprovação&quot; e também quando aprovar o ciclo&lt;/span&gt;&lt;/div&gt;&lt;div style=&quot;text-align: left;&quot;&gt;&lt;br&gt;&lt;/div&gt;&lt;div style=&quot;text-align: left;&quot;&gt;&lt;span style=&quot;background-color: initial;&quot;&gt;&lt;b&gt;Precisa do valor do companyId&lt;/b&gt;&lt;/span&gt;&lt;/div&gt;&lt;div style=&quot;text-align: left;&quot;&gt;&lt;b&gt;&lt;br&gt;&lt;/b&gt;&lt;/div&gt;&lt;div style=&quot;text-align: left;&quot;&gt;&lt;span style=&quot;background-color: initial;&quot;&gt;&lt;b&gt;TODO: Verificar se pode ignorar o companyId e enviar somente brandId e applicationId&lt;/b&gt;&lt;/span&gt;&lt;/div&gt;" style="text;html=1;align=center;verticalAlign=middle;resizable=0;points=[];autosize=1;strokeColor=none;fillColor=none;" vertex="1" parent="RU653SfCOMTX8gNQOs-m-1">
          <mxGeometry x="35" y="510" width="520" height="130" as="geometry" />
        </mxCell>
        <mxCell id="EBToT4pqiQOrfehGCony-0" value="Kafka NMC" style="shape=parallelogram;perimeter=parallelogramPerimeter;whiteSpace=wrap;html=1;fixedSize=1;" vertex="1" parent="RU653SfCOMTX8gNQOs-m-1">
          <mxGeometry x="540" y="90" width="120" height="60" as="geometry" />
        </mxCell>
        <mxCell id="EBToT4pqiQOrfehGCony-2" value="2. NMC envia que o ciclo está aguardando aprovação" style="text;html=1;align=center;verticalAlign=middle;resizable=0;points=[];autosize=1;strokeColor=none;fillColor=none;" vertex="1" parent="RU653SfCOMTX8gNQOs-m-1">
          <mxGeometry x="390" y="160" width="310" height="30" as="geometry" />
        </mxCell>
        <mxCell id="EBToT4pqiQOrfehGCony-6" value="" style="edgeStyle=orthogonalEdgeStyle;rounded=0;orthogonalLoop=1;jettySize=auto;html=1;" edge="1" parent="RU653SfCOMTX8gNQOs-m-1" source="EBToT4pqiQOrfehGCony-4" target="RU653SfCOMTX8gNQOs-m-9">
          <mxGeometry relative="1" as="geometry" />
        </mxCell>
        <mxCell id="EBToT4pqiQOrfehGCony-7" value="4. consulta os usuários aprovadores &lt;br&gt;&lt;br&gt;informando brandId e applicationId" style="edgeLabel;html=1;align=center;verticalAlign=middle;resizable=0;points=[];" vertex="1" connectable="0" parent="EBToT4pqiQOrfehGCony-6">
          <mxGeometry x="-0.0857" y="4" relative="1" as="geometry">
            <mxPoint x="-4" y="4" as="offset" />
          </mxGeometry>
        </mxCell>
        <mxCell id="EBToT4pqiQOrfehGCony-11" style="edgeStyle=orthogonalEdgeStyle;rounded=0;orthogonalLoop=1;jettySize=auto;html=1;" edge="1" parent="RU653SfCOMTX8gNQOs-m-1" source="EBToT4pqiQOrfehGCony-4" target="EBToT4pqiQOrfehGCony-0">
          <mxGeometry relative="1" as="geometry">
            <Array as="points">
              <mxPoint x="810" y="30" />
              <mxPoint x="600" y="30" />
            </Array>
          </mxGeometry>
        </mxCell>
        <mxCell id="EBToT4pqiQOrfehGCony-12" value="3. modulo recebe a informação de &lt;br&gt;que o ciclo está aguardando aprovação" style="edgeLabel;html=1;align=center;verticalAlign=middle;resizable=0;points=[];" vertex="1" connectable="0" parent="EBToT4pqiQOrfehGCony-11">
          <mxGeometry x="0.0516" y="-2" relative="1" as="geometry">
            <mxPoint as="offset" />
          </mxGeometry>
        </mxCell>
        <mxCell id="EBToT4pqiQOrfehGCony-17" style="edgeStyle=orthogonalEdgeStyle;rounded=0;orthogonalLoop=1;jettySize=auto;html=1;" edge="1" parent="RU653SfCOMTX8gNQOs-m-1" source="EBToT4pqiQOrfehGCony-4" target="EBToT4pqiQOrfehGCony-0">
          <mxGeometry relative="1" as="geometry">
            <Array as="points">
              <mxPoint x="880" y="130" />
            </Array>
          </mxGeometry>
        </mxCell>
        <mxCell id="EBToT4pqiQOrfehGCony-18" value="5. Devolve pro Kafka quais as notificações devem ser enviadas&lt;br style=&quot;border-color: var(--border-color);&quot;&gt;socketlabs-email-to-send&lt;br style=&quot;border-color: var(--border-color);&quot;&gt;infobip-sms-to-send&lt;br style=&quot;border-color: var(--border-color);&quot;&gt;infobip-rcs-to-send&lt;br style=&quot;border-color: var(--border-color);&quot;&gt;botmaker-whatsapp-to-send" style="edgeLabel;html=1;align=center;verticalAlign=middle;resizable=0;points=[];" vertex="1" connectable="0" parent="EBToT4pqiQOrfehGCony-17">
          <mxGeometry x="-0.0217" y="3" relative="1" as="geometry">
            <mxPoint x="94" y="37" as="offset" />
          </mxGeometry>
        </mxCell>
        <mxCell id="EBToT4pqiQOrfehGCony-4" value="Novo módulo&lt;br&gt;(multichannel-integration-cycle-event-consumer)" style="rounded=1;whiteSpace=wrap;html=1;" vertex="1" parent="RU653SfCOMTX8gNQOs-m-1">
          <mxGeometry x="827" y="10" width="120" height="60" as="geometry" />
        </mxCell>
      </root>
    </mxGraphModel>
  </diagram>
</mxfile>
